<?xml version="1.0" standalone="no"?>
<!DOCTYPE svg PUBLIC "-//W3C//DTD SVG 20010904//EN"
 "http://www.w3.org/TR/2001/REC-SVG-20010904/DTD/svg10.dtd">
<svg version="1.0" xmlns="http://www.w3.org/2000/svg"
 width="391.000000pt" height="313.000000pt" viewBox="0 0 391.000000 313.000000"
 preserveAspectRatio="xMidYMid meet">
<metadata>
Created by potrace 1.14, written by Peter Selinger 2001-2017
</metadata>
<g transform="translate(0.000000,313.000000) scale(0.100000,-0.100000)"
fill="#000000" stroke="none">
<path d="M1722 2913 c-15 -3 -22 -10 -18 -18 8 -21 -12 -29 -63 -26 -44 2 -45
2 -28 -17 26 -29 21 -41 -30 -63 l-48 -20 25 -19 c27 -20 69 -34 78 -26 2 3
-3 8 -12 12 -14 5 -13 10 10 30 21 20 24 30 19 57 l-7 32 31 -34 c17 -19 34
-31 38 -27 4 4 1 11 -7 16 -12 7 -11 12 4 29 21 23 97 29 126 11 9 -5 19 -5
27 1 14 12 57 -72 68 -133 7 -39 4 -43 -37 -39 -11 2 -18 -4 -18 -14 0 -13 -8
-15 -40 -11 -57 7 -77 -2 -49 -22 11 -8 24 -11 28 -6 13 19 50 15 61 -5 13
-25 30 -28 30 -5 0 13 5 12 30 -6 16 -12 38 -20 48 -18 11 2 26 -3 35 -11 21
-17 25 7 5 27 -9 9 -9 12 0 12 7 0 12 -3 12 -8 0 -4 10 -12 23 -17 15 -7 21
-17 20 -35 -2 -14 -3 -60 -3 -102 -1 -68 -4 -80 -24 -95 -12 -10 -23 -25 -24
-33 -4 -25 -5 -72 -3 -130 2 -75 21 -46 21 32 0 64 13 107 38 126 13 10 18 32
20 105 1 51 5 109 8 130 9 53 -31 129 -108 205 -93 93 -195 134 -286 115z
m-32 -68 c0 -3 -2 -5 -5 -5 -3 0 -5 2 -5 5 0 3 2 5 5 5 3 0 5 -2 5 -5z m290
-98 c0 -10 4 -16 9 -12 5 3 12 -4 16 -15 4 -11 18 -32 31 -45 14 -14 22 -30
18 -36 -4 -8 -10 -6 -17 6 -9 18 -10 18 -23 0 -8 -10 -14 -14 -14 -8 0 6 -14
13 -31 17 -23 4 -29 9 -22 18 10 14 10 31 -1 100 l-6 43 20 -25 c11 -14 20
-33 20 -43z m-380 8 c0 -3 -2 -5 -5 -5 -3 0 -5 2 -5 5 0 3 2 5 5 5 3 0 5 -2 5
-5z m210 -120 c0 -3 -2 -5 -5 -5 -3 0 -5 2 -5 5 0 3 2 5 5 5 3 0 5 -2 5 -5z
M2000 2660 c0 -7 3 -10 7 -7 3 4 3 10 0 14 -4 3 -7 0 -7 -7z M1670 2895 c0 -3
2 -5 5 -5 3 0 5 2 5 5 0 3 -2 5 -5 5 -3 0 -5 -2 -5 -5z M1574 2848 c-4 -7 -3
-8 4 -4 12 7 16 16 8 16 -3 0 -8 -5 -12 -12z M1534 2818 l-19 -23 23 19 c21
18 27 26 19 26 -2 0 -12 -10 -23 -22z M1847 2818 c4 -7 6 -23 4 -35 -2 -21 18
-53 33 -53 11 0 6 49 -5 56 -6 3 -9 15 -6 25 4 14 0 19 -15 19 -13 0 -17 -4
-11 -12z m33 -43 c0 -3 -2 -5 -5 -5 -3 0 -5 2 -5 5 0 3 2 5 5 5 3 0 5 -2 5 -5z
M1825 2780 c3 -5 8 -10 11 -10 2 0 4 5 4 10 0 6 -5 10 -11 10 -5 0 -7 -4 -4
-10z M1490 2755 c0 -3 2 -5 5 -5 3 0 5 2 5 5 0 3 -2 5 -5 5 -3 0 -5 -2 -5 -5z
M1800 2755 c0 -3 2 -5 5 -5 3 0 5 2 5 5 0 3 -2 5 -5 5 -3 0 -5 -2 -5 -5z
M1543 2733 c4 -3 10 -3 14 0 3 4 0 7 -7 7 -7 0 -10 -3 -7 -7z M1810 2735 c0
-3 2 -5 5 -5 3 0 5 2 5 5 0 3 -2 5 -5 5 -3 0 -5 -2 -5 -5z M1425 2715 c-22 -8
-41 -15 -43 -15 -2 0 -10 -16 -17 -35 -17 -39 -12 -60 29 -120 14 -21 26 -46
26 -56 0 -11 5 -19 10 -19 10 0 9 7 -12 100 -12 54 6 106 48 139 31 24 16 26
-41 6z m-25 -70 c0 -3 -2 -5 -5 -5 -3 0 -5 2 -5 5 0 3 2 5 5 5 3 0 5 -2 5 -5z
M1540 2690 c0 -5 -7 -10 -16 -10 -8 0 -12 -4 -9 -10 3 -5 17 -10 31 -10 35 0
29 -28 -11 -45 -19 -8 -19 -9 4 -13 19 -3 21 -6 10 -13 -11 -8 -10 -9 6 -7 15
3 20 11 20 31 -1 24 2 27 22 22 13 -3 23 -1 23 5 0 5 -6 10 -14 10 -8 0 -16 7
-20 15 -3 8 -1 15 4 15 6 0 10 5 10 10 0 6 -13 10 -30 10 -16 0 -30 -4 -30
-10z M1760 2675 c0 -3 2 -5 5 -5 3 0 5 2 5 5 0 3 -2 5 -5 5 -3 0 -5 -2 -5 -5z
M1660 2645 c0 -3 2 -5 5 -5 3 0 5 2 5 5 0 3 -2 5 -5 5 -3 0 -5 -2 -5 -5z
M1696 2635 c-8 -22 40 -40 59 -22 17 18 7 31 -26 35 -17 1 -29 -3 -33 -13z
M1765 2600 c-4 -6 11 -10 41 -10 26 0 44 3 41 7 -12 11 -75 14 -82 3z M1590
2595 c0 -3 2 -5 5 -5 3 0 5 2 5 5 0 3 -2 5 -5 5 -3 0 -5 -2 -5 -5z M1608 2573
c6 -2 18 -2 25 0 6 3 1 5 -13 5 -14 0 -19 -2 -12 -5z M1663 2573 c4 -3 10 -3
14 0 3 4 0 7 -7 7 -7 0 -10 -3 -7 -7z M1471 2546 c10 -21 21 -25 108 -33 53
-5 112 -6 131 -3 l35 7 -30 13 c-16 7 -48 12 -70 12 -22 -1 -42 3 -45 8 -3 4
-35 11 -72 14 l-67 5 10 -23z M1688 2553 c7 -3 16 -2 19 1 4 3 -2 6 -13 5 -11
0 -14 -3 -6 -6z M1750 2525 c0 -3 2 -5 5 -5 3 0 5 2 5 5 0 3 -2 5 -5 5 -3 0
-5 -2 -5 -5z M1750 2465 c0 -3 2 -5 5 -5 3 0 5 2 5 5 0 3 -2 5 -5 5 -3 0 -5
-2 -5 -5z M1440 2445 c0 -3 2 -5 5 -5 3 0 5 2 5 5 0 3 -2 5 -5 5 -3 0 -5 -2
-5 -5z M1470 2431 c-16 -31 -12 -87 8 -102 14 -11 15 -11 5 1 -26 28 -3 105
28 97 12 -3 16 0 12 9 -8 20 -41 17 -53 -5z M1495 2380 c3 -5 15 -10 26 -10
10 0 19 5 19 10 0 6 -12 10 -26 10 -14 0 -23 -4 -19 -10z M1560 2375 c0 -3 2
-5 5 -5 3 0 5 2 5 5 0 3 -2 5 -5 5 -3 0 -5 -2 -5 -5z M1854 2361 c3 -4 27 -11
53 -13 27 -3 56 -9 66 -13 12 -5 17 -3 17 8 0 8 -10 17 -22 21 -35 9 -120 7
-114 -3z M1535 2350 c3 -5 8 -10 11 -10 2 0 4 5 4 10 0 6 -5 10 -11 10 -5 0
-7 -4 -4 -10z M1910 2330 c-15 -9 -26 -60 -13 -59 4 0 18 13 30 29 24 29 12
48 -17 30z M1800 2321 c0 -14 37 -23 60 -16 34 11 22 25 -20 25 -22 0 -40 -4
-40 -9z M1535 2310 c3 -5 8 -10 11 -10 2 0 4 5 4 10 0 6 -5 10 -11 10 -5 0 -7
-4 -4 -10z M1562 2300 c0 -14 2 -19 5 -12 2 6 2 18 0 25 -3 6 -5 1 -5 -13z
M1960 2315 c0 -3 2 -5 5 -5 3 0 5 2 5 5 0 3 -2 5 -5 5 -3 0 -5 -2 -5 -5z
M1515 2250 c3 -5 11 -10 16 -10 6 0 7 5 4 10 -3 6 -11 10 -16 10 -6 0 -7 -4
-4 -10z M1553 2253 c4 -3 10 -3 14 0 3 4 0 7 -7 7 -7 0 -10 -3 -7 -7z M1391
2206 c-29 -31 -61 -41 -170 -55 -48 -6 -108 -22 -139 -36 -30 -14 -60 -25 -68
-25 -18 0 -102 -74 -141 -126 -101 -132 -172 -354 -155 -484 5 -33 3 -81 -5
-120 -32 -177 -42 -268 -31 -303 10 -31 7 -41 -20 -88 -37 -66 -124 -356 -126
-423 -1 -45 2 -51 40 -85 23 -20 44 -49 48 -64 9 -37 20 -40 242 -76 284 -46
313 -51 387 -77 49 -17 74 -21 92 -14 13 5 65 8 117 7 l93 -2 8 -84 c10 -119
19 -145 46 -149 22 -3 22 -3 7 27 -9 16 -14 36 -11 43 2 7 9 48 14 92 7 60 15
84 33 105 14 14 35 54 49 89 13 34 34 74 46 89 13 14 23 30 23 35 0 15 -57
-20 -83 -52 -28 -32 -42 -37 -50 -17 -4 9 -6 9 -6 0 -1 -7 -8 -13 -16 -13 -8
0 -15 -8 -15 -17 0 -14 -2 -15 -9 -5 -5 9 -12 -2 -21 -35 -6 -26 -14 -56 -17
-67 -10 -35 -23 6 -23 72 0 42 9 89 25 139 32 93 27 104 -9 23 -29 -64 -35
-93 -39 -175 -2 -49 -2 -50 -32 -47 -16 2 -31 8 -33 13 -2 5 -16 9 -30 9 -21
0 -24 -2 -12 -10 13 -9 13 -10 0 -10 -41 0 -47 28 -17 74 10 15 15 30 12 35
-2 5 2 11 10 15 8 3 15 13 15 23 1 22 25 55 33 46 4 -3 7 -1 7 5 0 15 42 58
53 54 12 -4 8 16 -5 21 -8 4 -7 6 4 6 9 1 19 -5 22 -11 3 -7 4 -5 3 5 -2 21
106 156 148 184 53 35 122 56 165 50 33 -4 40 -2 45 14 4 10 11 19 17 19 5 0
23 9 38 20 16 11 30 16 32 11 5 -16 60 -18 66 -2 3 10 -2 12 -21 7 -14 -3 -29
-1 -32 4 -4 6 -3 9 2 8 9 -3 57 42 50 48 -2 2 -15 -5 -30 -16 -14 -11 -33 -20
-42 -20 -34 0 -126 -32 -132 -46 -5 -13 -43 -21 -43 -9 0 3 14 18 32 34 30 27
32 33 33 97 1 38 7 87 14 109 7 22 15 52 18 67 3 15 9 25 14 22 5 -3 9 4 9 15
0 14 9 23 25 27 14 3 25 9 25 13 0 3 14 12 31 20 22 10 28 16 19 25 -8 8 -28
5 -75 -12 -35 -12 -75 -22 -89 -22 -21 0 -27 -7 -36 -39 -5 -21 -10 -49 -9
-62 0 -13 -4 -42 -10 -64 -12 -45 -14 -196 -2 -155 l7 25 6 -26 c6 -31 -23
-57 -40 -36 -10 13 -22 113 -15 121 3 2 7 33 9 68 6 78 41 217 63 242 15 18
15 19 -6 14 -13 -4 -23 -4 -23 -2 0 10 54 54 65 54 7 0 18 14 24 31 13 39 14
59 2 59 -10 0 -211 -190 -211 -199 0 -3 14 -6 30 -7 24 -1 30 3 31 20 0 12 3
15 6 8 4 -10 9 -9 24 4 11 9 22 14 26 11 3 -4 -6 -18 -21 -32 -22 -21 -25 -28
-16 -45 7 -14 8 -26 1 -38 -10 -16 -11 -15 -12 3 -1 11 -1 23 -1 27 1 3 -5 11
-12 17 -37 31 -108 -114 -100 -207 7 -98 20 -156 34 -160 20 -7 10 -30 -10
-25 -24 6 -25 0 -5 -21 9 -9 11 -17 5 -21 -5 -3 -10 -2 -10 3 0 6 -47 9 -111
8 -105 -1 -111 -2 -129 -26 -19 -25 -19 -25 0 -28 11 -2 27 3 35 11 8 9 23 14
32 12 10 -2 33 -4 51 -4 22 -1 32 -6 32 -17 0 -11 6 -15 20 -11 32 8 23 -13
-11 -25 -17 -6 -34 -20 -39 -32 -6 -15 -9 -17 -9 -4 -1 16 -41 15 -41 -2 0
-15 -33 -20 -48 -8 -9 8 -13 8 -9 2 4 -7 0 -17 -7 -23 -16 -14 -25 -4 -20 22
1 11 -1 16 -4 12 -4 -4 -7 -10 -7 -13 0 -4 -4 -13 -9 -21 -6 -9 -5 -12 1 -8 6
4 16 0 23 -7 13 -16 -14 -37 -38 -29 -7 3 -10 -1 -7 -9 3 -9 -4 -14 -21 -15
-15 0 -30 -6 -34 -12 -3 -7 -14 -9 -23 -5 -10 4 -17 1 -17 -6 0 -9 9 -10 33
-5 17 4 47 8 64 10 18 1 42 10 54 21 17 14 23 16 26 6 4 -10 9 -9 24 4 11 10
19 12 19 6 0 -7 -5 -12 -11 -12 -6 0 -9 -6 -6 -13 3 -7 -3 -13 -12 -14 -16 -1
-200 -65 -236 -82 -11 -6 -29 -12 -40 -14 -19 -5 -19 -5 3 -12 41 -14 27 -38
-18 -30 -32 5 -40 4 -40 -8 0 -12 9 -14 38 -11 45 6 75 -10 52 -27 -13 -9 -12
-10 3 -5 10 3 23 6 28 6 5 0 9 5 9 10 0 6 -6 10 -14 10 -8 0 -18 5 -22 11 -4
8 1 9 17 3 13 -4 43 -7 67 -6 26 2 42 -1 42 -9 0 -6 -7 -8 -15 -5 -9 3 -18 -1
-22 -10 -3 -8 -12 -13 -19 -10 -8 3 -14 2 -14 -3 0 -8 -13 -13 -91 -30 -42 -9
-71 2 -63 24 4 8 1 15 -5 15 -6 0 -11 -9 -11 -21 0 -16 -4 -19 -17 -14 -10 4
-31 10 -48 13 -16 3 -33 10 -37 16 -5 7 -8 5 -8 -6 0 -16 -3 -16 -35 -2 -21 9
-35 10 -35 4 0 -10 -20 -8 -72 7 -10 2 -18 8 -18 13 0 5 8 11 18 13 10 3 5 5
-12 6 -21 1 -27 -3 -22 -14 7 -18 -10 -20 -17 -2 -4 9 -8 9 -15 -2 -9 -12 -13
-12 -26 -2 -9 7 -25 10 -38 6 -19 -5 -20 -4 -8 5 12 10 11 11 -7 7 -14 -3 -23
0 -23 7 0 7 -11 23 -25 36 -13 12 -22 26 -20 31 3 4 0 11 -6 15 -8 5 -10 3 -4
-7 4 -8 -1 -6 -11 4 -15 14 -19 32 -19 82 0 35 3 59 6 53 4 -7 9 -7 13 1 4 6
11 9 15 6 5 -2 21 21 37 51 16 31 39 67 52 81 12 13 22 28 22 34 0 15 45 82
74 108 14 14 26 29 26 35 0 6 12 20 27 31 14 11 42 32 61 48 19 15 40 27 46
27 7 0 36 25 66 55 30 30 59 55 64 55 12 0 163 77 197 101 99 69 555 249 632
249 28 0 32 12 29 80 -1 22 -1 23 7 5 5 -11 18 -29 30 -39 11 -11 21 -29 21
-40 0 -30 36 -58 78 -59 6 0 12 -6 12 -14 0 -7 8 -13 18 -13 15 -1 15 -2 -2
-15 -18 -13 -18 -16 -4 -32 21 -25 28 -48 18 -64 -6 -9 -2 -20 11 -32 12 -11
18 -26 14 -37 -3 -10 0 -22 6 -26 9 -5 10 -2 5 12 -5 13 -4 16 3 9 5 -5 13
-22 16 -38 6 -22 4 -26 -9 -21 -9 3 -16 1 -16 -5 0 -6 12 -16 26 -21 15 -6 22
-14 18 -22 -5 -7 -2 -9 8 -5 19 7 54 -53 36 -64 -15 -10 20 -70 40 -68 31 3
43 -1 37 -11 -3 -5 -2 -10 2 -10 10 0 37 -59 36 -78 -1 -6 5 -12 12 -12 9 0
13 -11 13 -29 -1 -15 2 -33 6 -39 5 -8 1 -10 -10 -5 -12 4 -15 3 -10 -5 4 -7
18 -12 32 -12 23 0 24 1 10 16 -18 18 -21 54 -5 54 6 0 9 6 6 14 -4 9 1 16 11
19 12 3 9 6 -10 11 -18 5 -28 15 -28 27 0 18 10 19 164 19 179 0 190 2 331 65
36 16 99 34 133 37 6 1 12 5 12 10 0 4 18 8 40 8 22 0 40 4 40 9 0 4 11 7 25
6 14 -2 25 1 25 5 0 5 26 14 58 21 31 7 61 16 66 21 15 13 56 10 56 -4 0 -7 5
-5 11 5 5 9 21 17 34 17 13 0 27 5 30 10 4 6 11 8 16 4 5 -3 7 -9 4 -14 -3 -4
5 -6 17 -2 13 3 19 1 15 -5 -4 -6 4 -8 20 -5 20 4 24 2 18 -9 -7 -11 -6 -12 6
-2 11 9 20 5 43 -18 17 -16 35 -28 42 -25 20 8 25 -6 7 -19 -14 -11 -14 -12 1
-18 9 -4 15 -3 12 2 -3 5 1 11 9 15 9 3 15 0 15 -10 0 -8 5 -12 10 -9 6 3 10
1 10 -5 0 -6 5 -8 10 -5 6 4 10 3 9 -2 -3 -19 2 -33 12 -33 5 0 7 6 4 13 -4 6
4 0 17 -15 13 -16 29 -28 35 -28 6 0 30 -19 54 -42 49 -47 99 -63 99 -31 0 10
-12 26 -27 35 -16 10 -71 51 -123 93 -96 76 -231 165 -251 165 -7 0 -9 10 -6
23 23 96 143 568 172 676 19 74 32 138 28 142 -5 4 -75 -11 -158 -32 -82 -22
-265 -68 -405 -104 -270 -70 -273 -71 -291 -137 -11 -43 -13 -44 -54 -21 -23
13 -58 17 -155 17 l-125 1 -13 28 c-10 20 -20 27 -42 27 -16 0 -55 12 -87 26
-121 55 -196 84 -216 84 -54 0 -98 24 -140 76 -41 52 -43 53 -94 54 -70 0 -78
-18 -9 -22 l54 -3 -16 -50 c-15 -45 -21 -51 -54 -59 -33 -8 -43 -6 -85 20 -27
17 -75 43 -108 59 -33 16 -65 36 -72 45 -11 13 -12 11 -13 -12 0 -28 36 -51
123 -78 20 -6 37 -15 37 -18 0 -11 -42 -76 -54 -85 -6 -4 0 -6 14 -5 17 2 25
-3 28 -16 4 -17 -1 -18 -48 -13 -60 7 -205 70 -235 102 -11 11 -42 36 -68 53
-42 30 -47 37 -47 72 0 21 5 42 10 45 6 3 10 17 10 31 0 14 7 39 16 55 21 42
13 55 -15 25z m-92 -118 c59 -60 57 -71 -8 -37 -23 12 -52 19 -68 16 l-28 -3
32 -13 c17 -7 34 -20 38 -29 5 -14 7 -14 15 -2 7 10 10 11 10 3 0 -7 4 -13 10
-13 14 0 60 -49 60 -65 0 -8 5 -17 10 -20 7 -4 7 -13 0 -26 -12 -22 -19 -23
-40 -9 -13 9 -12 12 4 21 23 14 2 32 -26 23 -11 -3 -18 0 -19 8 0 7 -5 2 -10
-11 -8 -19 -14 -22 -37 -17 -15 4 -37 7 -50 7 -13 -1 -21 3 -17 8 3 5 2 12 -3
15 -4 2 -9 19 -10 38 -4 49 -16 53 -51 19 -18 -17 -36 -29 -41 -26 -15 9 -115
-24 -138 -45 -12 -11 -26 -20 -32 -20 -21 0 -9 29 25 59 20 17 32 31 28 31 -4
0 0 5 10 11 9 5 22 7 29 3 6 -4 8 -3 5 3 -15 25 35 45 120 47 62 2 84 16 25
16 -33 0 -40 3 -36 15 5 11 22 15 63 15 31 0 63 5 71 10 8 5 16 10 17 10 1 0
20 -19 42 -42z m2291 -113 c0 -3 -2 -5 -5 -5 -3 0 -5 2 -5 5 0 3 2 5 5 5 3 0
5 -2 5 -5z m50 -6 c0 -6 -5 -20 -11 -31 -9 -16 -8 -19 2 -13 9 6 11 3 6 -9 -4
-10 -7 -22 -7 -27 0 -6 -4 -7 -10 -4 -6 4 -10 -12 -10 -40 0 -25 -4 -53 -9
-63 -17 -32 -53 -167 -52 -195 1 -17 -3 -26 -9 -22 -6 4 -11 -6 -12 -22 -3
-53 -4 -58 -12 -71 -4 -7 -10 -29 -12 -50 -3 -20 -11 -57 -18 -82 -7 -25 -11
-51 -8 -58 3 -11 0 -12 -18 -2 -13 7 -20 7 -16 2 3 -6 -2 -13 -11 -15 -11 -3
-8 -5 10 -6 23 -1 26 -3 16 -19 -12 -19 -57 -23 -75 -7 -12 11 -12 43 -1 62 4
6 1 14 -5 16 -7 3 -3 6 10 6 13 1 20 5 17 11 -9 14 8 12 24 -2 11 -11 13 -10
8 5 -4 11 -1 17 8 17 7 0 14 8 14 18 0 9 2 31 4 49 3 28 0 34 -25 42 -15 6
-28 7 -28 4 0 -3 -7 0 -15 7 -13 10 -15 9 -15 -10 0 -17 -3 -20 -13 -12 -10 8
-16 6 -26 -9 -7 -13 -18 -18 -28 -15 -18 7 -53 -20 -53 -41 0 -7 -4 -13 -10
-13 -5 0 -10 -9 -10 -20 0 -11 -4 -20 -10 -20 -5 0 -10 5 -10 10 0 6 -4 10
-10 10 -13 0 -13 -57 0 -65 5 -3 7 -12 3 -20 -3 -8 0 -15 5 -15 6 0 14 -10 17
-21 6 -18 13 -20 41 -16 23 4 32 2 28 -5 -4 -5 -2 -13 4 -17 6 -4 -14 -7 -44
-7 -36 0 -58 -5 -64 -13 -5 -9 -15 -11 -26 -7 -10 4 -15 4 -12 0 8 -8 -16 -34
-31 -34 -6 0 -11 5 -11 11 0 9 -36 9 -155 -1 -5 0 -4 -4 3 -9 8 -5 -8 -6 -37
-3 -35 3 -51 1 -51 -7 0 -7 5 -9 11 -6 6 4 5 -3 -3 -14 -8 -13 -20 -20 -31
-17 -10 2 -14 0 -10 -7 4 -6 0 -8 -9 -5 -8 4 -21 2 -29 -4 -12 -8 -12 -9 1 -5
8 2 22 -3 30 -11 13 -14 12 -15 -4 -9 -10 4 -38 7 -63 7 -39 0 -44 2 -33 15 7
8 23 15 37 15 13 0 22 4 19 9 -4 5 0 12 6 14 9 4 8 6 -2 6 -9 1 -26 -6 -38
-15 -21 -14 -22 -14 -22 10 0 14 10 35 23 47 18 18 18 21 4 16 -13 -5 -16 -3
-10 6 4 6 8 17 9 22 1 6 4 36 8 68 4 31 11 57 16 57 4 0 6 9 3 21 -4 16 -8 17
-14 7 -13 -20 -11 -2 7 58 8 29 20 56 25 59 5 4 9 34 8 68 -1 68 -16 46 -18
-26 -1 -20 -5 -45 -10 -55 -15 -26 -68 -210 -83 -279 -6 -35 -15 -63 -18 -63
-3 0 -6 -16 -7 -35 -3 -62 -22 -106 -41 -96 -9 5 -78 19 -152 31 -190 31 -178
26 -192 74 -6 22 -12 45 -12 49 -1 4 -6 11 -12 15 -11 6 -108 204 -102 206 2
1 29 14 61 29 55 26 60 26 135 16 101 -13 140 -26 147 -49 12 -36 27 -39 100
-19 50 14 71 16 76 7 8 -12 39 -4 39 11 0 12 -74 23 -117 18 -18 -3 -33 -1
-33 4 0 4 -21 15 -47 23 -48 15 -48 15 57 10 67 -3 113 -11 128 -20 26 -17 25
-20 47 84 53 253 53 252 64 252 3 0 4 -27 1 -59 -3 -33 -2 -58 1 -55 4 2 9 -2
12 -8 2 -7 3 10 2 37 -3 59 2 70 21 54 11 -9 14 -8 14 5 0 9 -4 16 -10 16 -5
0 -1 9 10 20 11 11 20 25 20 31 0 11 11 23 44 49 18 14 18 13 12 -10 l-7 -25
18 22 c10 12 35 24 58 28 22 4 50 12 63 18 18 8 25 8 31 -2 6 -10 10 -9 14 3
4 9 11 16 17 16 6 0 8 -6 5 -12 -4 -7 0 -4 9 6 13 17 18 17 33 5 11 -9 14 -10
9 -1 -4 7 -1 12 9 12 8 0 23 4 33 10 31 18 203 59 219 53 10 -4 14 -2 10 4 -4
6 12 15 40 22 35 9 48 9 53 1 5 -9 11 -8 21 4 16 17 49 21 49 5z m-2607 -25
c3 -4 -12 -31 -35 -60 -22 -30 -38 -57 -35 -60 8 -9 74 65 88 97 14 36 41 37
59 4 7 -14 16 -23 18 -20 3 3 14 -3 24 -12 17 -15 20 -15 28 -3 8 12 10 12 10
-3 0 -17 1 -17 16 -3 8 9 25 16 37 16 12 0 32 3 45 6 19 6 23 3 20 -12 -2 -14
2 -18 16 -16 10 2 16 0 13 -5 -3 -5 3 -9 13 -9 10 0 16 4 14 8 -3 4 2 8 11 8
9 0 14 4 11 9 -3 5 1 12 10 15 9 3 12 2 8 -5 -3 -6 2 -17 13 -24 10 -7 25 -29
33 -49 7 -20 17 -36 21 -36 25 0 16 56 -10 63 -15 4 -15 5 1 6 9 0 24 -6 32
-15 9 -8 22 -12 28 -8 7 4 10 4 6 -1 -4 -4 0 -14 10 -21 16 -12 16 -14 0 -31
-12 -11 -18 -13 -18 -5 0 7 -4 10 -10 7 -5 -3 -10 -11 -10 -16 0 -6 5 -7 10
-4 12 7 12 -1 4 -43 -4 -21 -13 -32 -28 -36 -12 -2 -9 -4 9 -3 28 2 30 5 33
45 3 36 6 42 25 42 16 0 18 3 9 9 -11 6 -10 11 3 25 18 18 30 21 20 6 -3 -5 0
-10 9 -10 8 0 22 -3 32 -7 13 -5 15 -3 9 7 -5 9 -4 11 4 6 6 -4 8 -12 5 -18
-5 -7 2 -9 19 -4 14 3 38 1 53 -4 19 -7 30 -7 40 1 11 9 14 8 15 -2 0 -11 2
-11 6 -1 4 10 8 10 19 1 11 -9 14 -7 14 15 0 15 4 25 9 22 5 -3 11 4 14 15 4
15 2 19 -9 15 -9 -4 -14 1 -14 15 0 19 1 19 16 5 8 -9 22 -16 30 -16 11 0 14
-7 10 -22 -3 -13 -3 -17 0 -10 5 10 11 9 27 -5 11 -10 17 -12 13 -5 -4 7 -2
12 5 12 8 0 10 -12 5 -38 -6 -38 -5 -38 24 -34 17 2 33 8 36 13 8 14 24 11 24
-5 0 -8 7 -17 16 -20 10 -4 13 -13 9 -26 -5 -16 -2 -20 14 -20 25 0 29 35 6
44 -8 3 -15 12 -15 21 0 8 7 15 15 15 11 0 15 11 15 36 0 47 19 64 77 68 27 2
33 1 15 -1 -18 -2 -30 -8 -27 -14 4 -5 -5 -9 -19 -9 -24 0 -26 -4 -26 -40 0
-22 4 -40 9 -40 5 0 7 9 4 20 -3 12 0 20 6 20 7 0 9 6 6 13 -4 6 0 4 8 -5 9
-12 13 -34 10 -67 -2 -30 1 -52 8 -56 8 -5 9 2 4 24 -5 26 -4 30 9 25 29 -11
20 -61 -13 -79 -17 -8 -31 -25 -33 -37 -2 -12 -15 -29 -30 -37 -24 -14 -28
-14 -46 2 -10 9 -22 14 -27 10 -4 -5 -5 -2 -1 5 4 7 1 12 -8 12 -27 0 -46 -12
-46 -29 0 -13 -2 -14 -9 -2 -8 12 -12 10 -22 -12 -13 -28 -24 -34 -34 -17 -4
6 -11 8 -16 5 -5 -4 -10 3 -10 14 -1 12 -2 27 -3 34 -1 6 5 11 12 10 13 -3 15
30 3 61 -9 23 -14 16 -35 -45 -19 -53 -20 -70 -5 -66 6 1 14 -5 16 -13 4 -12
3 -13 -5 -1 -8 11 -14 9 -33 -13 -27 -31 -74 -37 -66 -7 3 14 0 17 -14 14 -14
-4 -17 -9 -9 -18 11 -13 -5 -24 -45 -31 -11 -2 -29 -5 -41 -7 -11 -2 -38 -14
-60 -26 -35 -21 -37 -24 -19 -32 18 -7 17 -8 -7 -8 -15 -1 -30 -6 -33 -12 -10
-16 -28 -5 -31 19 -3 15 0 20 10 16 11 -4 13 5 9 43 -2 26 -5 63 -5 81 l0 34
-55 -6 c-31 -3 -63 -11 -72 -18 -9 -7 -13 -8 -9 -4 4 5 3 15 -4 23 -6 7 -8 16
-5 20 4 3 -3 21 -14 39 -11 19 -18 38 -14 44 3 5 1 10 -5 10 -6 0 -8 5 -4 13
6 9 5 9 -7 0 -12 -10 -15 -7 -17 14 -4 45 -62 89 -62 47 0 -8 -5 -12 -10 -9
-8 5 -8 11 0 20 8 10 8 19 -1 34 -16 25 -48 34 -56 15 -7 -19 5 -47 17 -39 5
3 10 0 10 -9 0 -8 14 -28 31 -45 16 -17 31 -40 32 -51 1 -12 8 -20 20 -20 17
0 18 -2 6 -17 -10 -11 -10 -14 -1 -9 7 4 12 1 12 -9 0 -9 4 -14 9 -11 7 5 26
-47 23 -66 -1 -3 10 -17 23 -30 46 -43 31 -108 -25 -112 -9 -1 -15 -11 -15
-26 0 -20 4 -24 22 -22 12 2 24 -2 28 -8 3 -5 15 -10 26 -10 37 0 19 -27 -23
-34 -7 -1 -28 -9 -45 -18 -31 -16 -32 -16 -23 2 5 10 17 26 26 34 14 15 14 16
-2 16 -18 0 -35 -18 -60 -64 -15 -27 -15 -29 2 -22 14 5 16 4 8 -4 -6 -6 -18
-8 -27 -5 -22 9 -15 50 13 80 18 20 21 28 12 37 -9 9 -12 8 -12 -5 0 -9 -7
-17 -15 -17 -9 0 -19 -8 -22 -17 -4 -10 -19 -36 -35 -57 -15 -21 -28 -44 -28
-50 0 -20 -17 -39 -29 -32 -7 5 -7 13 -1 26 6 11 15 29 20 41 10 18 9 19 -10
9 -11 -6 -20 -17 -20 -24 0 -8 -7 -17 -15 -20 -13 -5 -14 -10 -5 -27 14 -26
11 -29 -17 -18 -23 8 -32 39 -12 39 5 0 8 4 5 9 -3 4 3 19 14 31 11 13 20 27
20 31 0 4 9 11 20 14 11 3 20 12 20 18 1 21 121 72 131 56 10 -16 14 -12 23
23 l6 28 -52 -21 c-95 -36 -119 -50 -159 -92 -64 -67 -86 -126 -54 -149 15
-11 27 -10 20 2 -3 6 1 7 9 4 21 -8 22 -7 -29 -40 -25 -15 -45 -32 -45 -37 0
-4 -10 -5 -21 -2 -19 6 -21 4 -17 -13 5 -17 1 -21 -25 -24 -29 -3 -30 -4 -13
-20 16 -17 16 -18 -7 -16 -19 2 -23 6 -19 27 6 31 28 55 42 46 32 -20 -13 138
-50 175 -3 3 -7 14 -8 25 -5 29 -48 155 -56 162 -3 4 -6 22 -6 40 0 20 -4 32
-10 28 -12 -8 -13 1 -1 43 5 17 6 32 1 32 -5 0 -5 12 -1 28 4 15 7 41 6 57 -1
17 5 41 13 55 41 68 65 99 75 93 6 -3 7 -1 3 6 -17 27 123 109 147 85z m354
-1 c-4 -3 -10 -3 -14 0 -3 4 0 7 7 7 7 0 10 -3 7 -7z m603 2 c0 -3 -2 -5 -5
-5 -3 0 -5 2 -5 5 0 3 2 5 5 5 3 0 5 -2 5 -5z m30 1 c0 -3 -5 -8 -12 -12 -7
-4 -8 -3 -4 4 7 12 16 16 16 8z m-573 -53 c-4 -3 -7 0 -7 7 0 7 3 10 7 7 3 -4
3 -10 0 -14z m556 5 c4 -10 8 -9 16 2 9 13 11 13 11 -2 0 -10 5 -18 11 -18 5
0 8 4 5 9 -4 5 1 8 9 7 26 -4 26 -13 -1 -20 -20 -5 -25 -12 -21 -26 4 -16 -1
-21 -21 -26 -63 -13 -68 -23 -12 -23 67 -1 56 -17 -17 -25 -58 -6 -62 -1 -43
48 6 17 6 27 -1 32 -6 3 -3 12 8 21 10 8 12 11 4 7 -9 -5 -12 -3 -7 5 4 6 11
9 16 6 5 -3 11 -1 15 5 8 14 22 13 28 -2z m-87 -27 c0 -12 -6 -17 -17 -14 -10
3 -15 11 -12 19 8 20 29 17 29 -5z m-466 4 c0 -3 -2 -5 -5 -5 -3 0 -5 2 -5 5
0 3 2 5 5 5 3 0 5 -2 5 -5z m30 0 c0 -3 -2 -5 -5 -5 -3 0 -5 2 -5 5 0 3 2 5 5
5 3 0 5 -2 5 -5z m40 -15 c8 -5 11 -10 5 -10 -5 0 -17 5 -25 10 -8 5 -10 10
-5 10 6 0 17 -5 25 -10z m347 3 c-4 -3 -10 -3 -14 0 -3 4 0 7 7 7 7 0 10 -3 7
-7z m327 -9 c9 -3 16 -12 16 -20 0 -17 17 -18 23 -1 4 9 8 9 15 -2 6 -8 17
-11 25 -8 18 7 37 -11 37 -36 0 -16 5 -18 33 -12 21 4 27 3 18 -3 -7 -5 -10
-15 -6 -21 4 -7 1 -19 -6 -27 -6 -8 -9 -17 -6 -20 3 -3 13 8 22 25 16 32 29
39 40 21 4 -6 16 -8 28 -4 12 3 19 3 15 -1 -4 -5 -3 -14 3 -22 9 -10 8 -13 -5
-13 -9 0 -16 -4 -16 -10 0 -5 7 -7 15 -4 8 3 36 -1 62 -9 27 -8 68 -20 91 -25
43 -10 44 -9 39 14 -3 20 0 24 19 24 13 0 24 4 24 9 0 5 9 11 21 14 17 5 18 3
7 -11 -11 -14 -10 -15 5 -9 11 4 16 3 12 -3 -3 -6 -13 -10 -22 -10 -10 0 -13
-6 -9 -16 3 -8 2 -12 -4 -9 -6 3 -10 1 -10 -5 0 -6 -5 -8 -12 -4 -6 4 -8 3 -5
-3 7 -11 -27 -43 -46 -43 -7 0 -21 10 -32 23 l-20 22 -3 -22 c-4 -28 -28 -30
-37 -4 -3 11 -15 23 -26 26 -10 4 -19 13 -19 21 0 16 -36 19 -45 4 -3 -5 -11
-10 -16 -10 -6 0 -7 5 -4 10 3 6 -4 10 -17 9 -13 0 -17 -3 -10 -6 17 -7 15
-38 -4 -54 -13 -10 -17 -10 -24 0 -4 8 -13 10 -19 7 -18 -11 -13 -26 9 -26 11
0 20 -5 20 -11 0 -8 4 -8 13 -1 6 5 32 10 56 10 24 1 46 3 49 6 3 3 -14 6 -38
6 -42 0 -43 0 -26 19 21 23 57 14 86 -21 14 -18 30 -23 74 -25 31 -1 56 1 56
6 0 4 11 13 25 19 14 6 25 8 25 3 0 -5 -11 -23 -25 -39 -27 -33 -37 -132 -13
-132 6 0 9 -3 6 -6 -3 -3 -22 2 -42 10 -28 11 -36 21 -36 40 0 43 -37 67 -70
46 -11 -7 -7 -10 18 -10 30 0 32 -2 32 -35 0 -42 -7 -44 -37 -8 -17 19 -23 22
-23 10 0 -20 -6 -23 -57 -32 -40 -6 -43 -5 -43 15 0 16 4 20 16 16 53 -20 64
-19 64 9 0 21 -4 26 -16 21 -61 -23 -77 -16 -52 23 6 10 8 26 3 37 -5 13 -9
15 -12 7 -3 -7 -13 -13 -23 -13 -10 0 -22 -4 -25 -10 -3 -5 -12 -10 -18 -10
-7 0 -6 4 3 10 13 8 12 10 -2 10 -10 0 -18 -5 -18 -11 0 -6 -9 -9 -20 -6 -15
4 -20 0 -20 -14 0 -22 11 -24 28 -7 9 9 12 7 12 -9 0 -13 -6 -20 -17 -20 -35
0 -44 -3 -38 -13 3 -5 -1 -10 -9 -10 -11 0 -16 -9 -16 -26 0 -28 0 -28 -47 1
-37 23 -42 35 -14 35 11 0 23 4 26 10 4 6 -1 7 -11 3 -14 -5 -16 -2 -11 16 10
40 -15 73 -27 34 -3 -11 -4 -7 -3 7 1 18 -2 24 -13 22 -8 -2 -11 0 -7 5 5 4
16 8 25 8 10 0 20 13 26 33 10 36 26 44 20 10 -4 -21 -4 -22 5 -3 14 29 13 45
-3 45 -14 0 -33 69 -27 99 1 7 -2 10 -8 6 -10 -6 -16 15 -12 39 1 5 -4 13 -11
17 -16 10 22 12 46 3z m-584 -39 c0 -3 -2 -5 -5 -5 -3 0 -5 2 -5 5 0 3 2 5 5
5 3 0 5 -2 5 -5z m190 -10 c0 -3 -2 -5 -5 -5 -3 0 -5 2 -5 5 0 3 2 5 5 5 3 0
5 -2 5 -5z m555 -15 c-27 -12 -43 -12 -25 0 8 5 22 9 30 9 10 0 8 -3 -5 -9z
m-1115 -15 c0 -3 -2 -5 -5 -5 -3 0 -5 2 -5 5 0 3 2 5 5 5 3 0 5 -2 5 -5z m30
0 c0 -3 -2 -5 -5 -5 -3 0 -5 2 -5 5 0 3 2 5 5 5 3 0 5 -2 5 -5z m1127 -2 c-4
-3 -10 -3 -14 0 -3 4 0 7 7 7 7 0 10 -3 7 -7z m73 -28 c0 -3 -2 -5 -5 -5 -3 0
-5 2 -5 5 0 3 2 5 5 5 3 0 5 -2 5 -5z m410 -10 c0 -3 -2 -5 -5 -5 -3 0 -5 2
-5 5 0 3 2 5 5 5 3 0 5 -2 5 -5z m-377 -12 c-7 -2 -19 -2 -25 0 -7 3 -2 5 12
5 14 0 19 -2 13 -5z m137 -8 c0 -3 -2 -5 -5 -5 -3 0 -5 2 -5 5 0 3 2 5 5 5 3
0 5 -2 5 -5z m-30 -17 c0 -5 -22 -8 -50 -8 -27 0 -50 3 -50 8 0 4 23 7 50 7
28 0 50 -3 50 -7z m160 -23 c0 -14 -2 -25 -4 -25 -2 0 -6 11 -8 25 -3 14 -1
25 3 25 5 0 9 -11 9 -25z m-29 -34 c7 10 9 8 7 -11 -4 -38 -23 -30 -25 10 -1
22 1 26 4 11 4 -19 7 -21 14 -10z m-571 11 c0 -4 -9 -8 -19 -8 -11 0 -17 4
-15 8 3 4 12 8 20 8 8 0 14 -4 14 -8z m180 -27 c0 -3 -2 -5 -5 -5 -3 0 -5 2
-5 5 0 3 2 5 5 5 3 0 5 -2 5 -5z m-233 -30 c0 -8 -4 -12 -9 -9 -5 3 -6 10 -3
15 9 13 12 11 12 -6z m590 -32 c-3 -10 -5 -2 -5 17 0 19 2 27 5 18 2 -10 2
-26 0 -35z m46 -17 c-4 -27 -9 -34 -15 -24 -6 8 -7 -7 -4 -42 3 -39 3 -46 -3
-25 -7 25 -9 26 -10 8 -1 -24 -9 -28 -26 -15 -12 9 -15 82 -3 82 4 0 8 -12 9
-27 l1 -28 13 30 c8 17 12 41 9 55 -4 22 -3 23 5 5 10 -19 10 -19 17 3 10 34
14 21 7 -22z m-1283 29 c0 -3 -2 -5 -5 -5 -3 0 -5 2 -5 5 0 3 2 5 5 5 3 0 5
-2 5 -5z m670 0 c0 -3 -2 -5 -5 -5 -3 0 -5 2 -5 5 0 3 2 5 5 5 3 0 5 -2 5 -5z
m-701 -21 c10 -10 -8 -13 -42 -7 -20 3 -37 10 -37 15 0 9 69 2 79 -8z m681
-24 c0 -19 -5 -30 -14 -30 -8 0 -21 -3 -30 -6 -11 -4 -16 0 -17 12 0 18 -1 17
-9 -1 -7 -18 -9 -18 -15 -3 -9 21 -1 34 25 41 11 3 18 1 14 -4 -3 -5 0 -9 6
-9 6 0 13 7 16 15 10 25 24 17 24 -15z m40 5 c0 -3 -2 -5 -5 -5 -3 0 -5 2 -5
5 0 3 2 5 5 5 3 0 5 -2 5 -5z m-1373 -37 c-3 -7 -5 -2 -5 12 0 14 2 19 5 13 2
-7 2 -19 0 -25z m660 15 c-4 -3 -7 0 -7 7 0 7 3 10 7 7 3 -4 3 -10 0 -14z m20
-30 c-14 -31 -21 -22 -12 18 5 21 10 27 15 19 5 -7 3 -24 -3 -37z m905 35 c-9
-9 -15 -9 -24 0 -9 9 -7 12 12 12 19 0 21 -3 12 -12z m-635 -14 c-3 -3 -12 -4
-19 -1 -8 3 -5 6 6 6 11 1 17 -2 13 -5z m33 1 c0 -3 -2 -5 -5 -5 -3 0 -5 2 -5
5 0 3 2 5 5 5 3 0 5 -2 5 -5z m380 0 c0 -3 -2 -5 -5 -5 -3 0 -5 2 -5 5 0 3 2
5 5 5 3 0 5 -2 5 -5z m150 -12 c0 5 5 5 11 1 8 -4 7 -9 -2 -15 -22 -14 -29
-11 -29 14 0 18 2 19 10 7 5 -8 10 -11 10 -7z m-860 -20 c0 -10 7 -27 15 -37
14 -19 12 -36 -6 -36 -5 0 -9 11 -9 25 0 18 -5 25 -20 25 -23 0 -26 10 -8 28
17 17 28 15 28 -5z m710 12 c0 -3 -2 -5 -5 -5 -3 0 -5 2 -5 5 0 3 2 5 5 5 3 0
5 -2 5 -5z m10 -19 c0 -3 -4 -8 -10 -11 -5 -3 -10 -1 -10 4 0 6 5 11 10 11 6
0 10 -2 10 -4z m-560 -11 c0 -3 -2 -5 -5 -5 -3 0 -5 2 -5 5 0 3 2 5 5 5 3 0 5
-2 5 -5z m570 -10 c0 -3 -2 -5 -5 -5 -3 0 -5 2 -5 5 0 3 2 5 5 5 3 0 5 -2 5
-5z m90 0 c0 -3 -2 -5 -5 -5 -3 0 -5 2 -5 5 0 3 2 5 5 5 3 0 5 -2 5 -5z m60 0
c0 -3 -2 -5 -5 -5 -3 0 -5 2 -5 5 0 3 2 5 5 5 3 0 5 -2 5 -5z m127 -2 c-4 -3
-10 -3 -14 0 -3 4 0 7 7 7 7 0 10 -3 7 -7z m108 -3 c8 -13 -5 -13 -25 0 -13 8
-13 10 2 10 9 0 20 -4 23 -10z m-355 -10 c-20 -13 -33 -13 -25 0 3 6 14 10 23
10 15 0 15 -2 2 -10z m277 3 c-4 -3 -10 -3 -14 0 -3 4 0 7 7 7 7 0 10 -3 7 -7z
m953 -21 c0 -34 -16 -52 -47 -52 -23 0 -24 9 0 58 16 33 47 29 47 -6z m-2630
13 c0 -3 -2 -5 -5 -5 -3 0 -5 2 -5 5 0 3 2 5 5 5 3 0 5 -2 5 -5z m547 -12 c-4
-3 -10 -3 -14 0 -3 4 0 7 7 7 7 0 10 -3 7 -7z m1963 -2 c0 -12 -20 -25 -27
-18 -7 7 6 27 18 27 5 0 9 -4 9 -9z m-2514 -17 c13 -11 15 -17 7 -20 -19 -8
-16 -22 4 -20 11 1 22 -13 32 -39 8 -22 20 -43 25 -47 7 -5 7 -11 -2 -20 -10
-10 -15 -10 -22 2 -8 13 -12 12 -31 -6 -21 -22 -19 -45 4 -43 9 0 9 2 0 6 -25
9 -13 22 12 13 14 -5 30 -7 37 -5 8 3 17 -9 24 -31 10 -31 9 -37 -7 -47 -22
-14 -27 -85 -7 -105 8 -8 9 -12 1 -12 -6 0 -24 -10 -40 -23 -15 -13 -44 -24
-63 -26 -33 -2 -35 0 -37 28 -2 22 2 31 12 31 8 0 15 5 15 10 0 6 10 8 24 4
14 -3 27 -1 31 6 5 9 2 10 -12 6 -16 -5 -20 -1 -22 21 -6 118 -10 148 -19 146
-5 -1 -8 7 -5 17 3 11 9 20 13 20 8 0 3 126 -5 141 -10 14 9 11 31 -7z m2562
-40 c1 -72 -29 -129 -63 -122 -13 2 -11 10 10 40 14 20 25 48 25 62 0 25 -1
25 -20 9 -11 -10 -20 -23 -20 -30 0 -23 -23 -63 -37 -63 -21 0 -15 54 9 86 29
38 70 74 84 74 7 0 12 -22 12 -56z m-788 1 c0 -3 -2 -5 -5 -5 -3 0 -5 2 -5 5
0 3 2 5 5 5 3 0 5 -2 5 -5z m-1360 -89 c0 -5 -7 -3 -15 4 -8 7 -12 17 -9 22 7
10 24 -9 24 -26z m0 -21 c0 -3 -2 -5 -5 -5 -3 0 -5 2 -5 5 0 3 2 5 5 5 3 0 5
-2 5 -5z m2150 -32 c-1 -24 -2 -26 -11 -10 -5 9 -7 22 -4 27 10 17 15 11 15
-17z m120 -8 c0 -3 -2 -5 -5 -5 -3 0 -5 2 -5 5 0 3 2 5 5 5 3 0 5 -2 5 -5z
m-2353 -12 c-4 -3 -10 -3 -14 0 -3 4 0 7 7 7 7 0 10 -3 7 -7z m2330 0 c-4 -3
-10 -3 -14 0 -3 4 0 7 7 7 7 0 10 -3 7 -7z m-1617 -18 c0 -8 -4 -15 -10 -15
-5 0 -7 7 -4 15 4 8 8 15 10 15 2 0 4 -7 4 -15z m1640 0 c0 -3 -2 -5 -5 -5 -3
0 -5 2 -5 5 0 3 2 5 5 5 3 0 5 -2 5 -5z m20 -10 c0 -3 -2 -5 -5 -5 -3 0 -5 2
-5 5 0 3 2 5 5 5 3 0 5 -2 5 -5z m-1740 -49 c0 -7 -9 -31 -21 -55 -15 -31 -19
-55 -15 -88 6 -55 -4 -48 -20 13 -10 40 -9 49 12 89 12 25 20 45 18 45 -3 0
-2 5 1 10 8 13 25 3 25 -14z m1290 4 c11 -7 5 -8 -20 -4 -43 8 -51 14 -19 14
13 0 31 -5 39 -10z m-2295 -21 c4 -11 4 -23 1 -26 -10 -10 -35 18 -29 33 8 20
21 17 28 -7z m2165 16 c0 -3 -2 -5 -5 -5 -3 0 -5 2 -5 5 0 3 2 5 5 5 3 0 5 -2
5 -5z m10 -25 c0 -5 -8 -10 -17 -10 -15 0 -16 2 -3 10 19 12 20 12 20 0z m47
3 c-4 -3 -10 -3 -14 0 -3 4 0 7 7 7 7 0 10 -3 7 -7z m-1140 -40 c-4 -3 -7 0
-7 7 0 7 3 10 7 7 3 -4 3 -10 0 -14z m-157 2 c0 -3 -2 -5 -5 -5 -3 0 -5 2 -5
5 0 3 2 5 5 5 3 0 5 -2 5 -5z m619 -40 c0 -5 -6 -1 -14 9 -8 11 -15 24 -15 30
0 5 7 1 15 -10 8 -10 14 -23 14 -29z m421 20 c0 -3 -2 -5 -5 -5 -3 0 -5 2 -5
5 0 3 2 5 5 5 3 0 5 -2 5 -5z m100 1 c0 -3 -4 -8 -10 -11 -5 -3 -10 -1 -10 4
0 6 5 11 10 11 6 0 10 -2 10 -4z m-1060 -31 c0 -3 -2 -5 -5 -5 -3 0 -5 2 -5 5
0 3 2 5 5 5 3 0 5 -2 5 -5z m60 0 c0 -3 -2 -5 -5 -5 -3 0 -5 2 -5 5 0 3 2 5 5
5 3 0 5 -2 5 -5z m17 -42 c-4 -3 -10 -3 -14 0 -3 4 0 7 7 7 7 0 10 -3 7 -7z
m-1087 -13 c0 -5 -4 -10 -9 -10 -10 0 -27 -39 -23 -52 1 -4 -5 -5 -13 -2 -12
5 -13 8 0 20 7 8 17 23 20 34 7 21 25 28 25 10z m67 -17 c-4 -3 -7 0 -7 7 0 7
3 10 7 7 3 -4 3 -10 0 -14z m-120 -10 c-4 -3 -7 0 -7 7 0 7 3 10 7 7 3 -4 3
-10 0 -14z m98 -3 c3 -5 -1 -10 -9 -10 -9 0 -16 5 -16 10 0 6 4 10 9 10 6 0
13 -4 16 -10z m3062 -7 c-4 -3 -10 -3 -14 0 -3 4 0 7 7 7 7 0 10 -3 7 -7z
m-3097 -28 c0 -3 -2 -5 -5 -5 -3 0 -5 2 -5 5 0 3 2 5 5 5 3 0 5 -2 5 -5z m962
-7 c-17 -8 -26 -8 -34 0 -9 9 -4 12 23 11 32 0 33 -1 11 -11z m-1015 -60 c-50
-49 -87 -102 -87 -124 0 -10 -5 -26 -11 -34 -17 -25 1 60 22 104 11 22 19 45
19 52 0 17 49 47 66 40 8 -3 14 0 15 7 0 9 2 9 5 0 3 -6 -10 -26 -29 -45z
m983 -13 c0 -3 -2 -5 -5 -5 -3 0 -5 2 -5 5 0 3 2 5 5 5 3 0 5 -2 5 -5z m-80
-30 c0 -3 -2 -5 -5 -5 -3 0 -5 2 -5 5 0 3 2 5 5 5 3 0 5 -2 5 -5z m-30 -20 c0
-3 -2 -5 -5 -5 -3 0 -5 2 -5 5 0 3 2 5 5 5 3 0 5 -2 5 -5z m60 1 c0 -3 -5 -8
-12 -12 -7 -4 -8 -3 -4 4 7 12 16 16 16 8z m-180 -115 c0 -6 -4 -12 -9 -15
-13 -8 -42 4 -35 15 7 12 44 12 44 0z m37 2 c-4 -3 -10 -3 -14 0 -3 4 0 7 7 7
7 0 10 -3 7 -7z m30 -30 c-4 -3 -7 0 -7 7 0 7 3 10 7 7 3 -4 3 -10 0 -14z
m-947 -38 c0 -3 -2 -5 -5 -5 -3 0 -5 2 -5 5 0 3 2 5 5 5 3 0 5 -2 5 -5z m867
-42 c-4 -3 -7 0 -7 7 0 7 3 10 7 7 3 -4 3 -10 0 -14z m-104 -60 c-21 -13 -48
-22 -61 -20 -12 3 -25 0 -28 -4 -3 -5 2 -9 10 -9 9 0 16 -6 16 -14 0 -12 -7
-13 -32 -5 -18 5 -34 9 -35 9 -2 0 -3 5 -3 10 0 11 43 33 70 35 8 1 21 3 28 4
7 0 11 5 8 10 -3 5 10 9 29 8 l36 -1 -38 -23z m47 -4 c0 -22 -23 -89 -31 -89
-9 0 0 40 13 56 4 6 6 19 2 28 -3 9 -1 16 5 16 6 0 11 -5 11 -11z m-40 -28 c0
-5 -7 -12 -16 -15 -24 -9 -28 -7 -14 9 14 17 30 20 30 6z m267 -68 c-4 -3 -7
0 -7 7 0 7 3 10 7 7 3 -4 3 -10 0 -14z m33 2 c0 -3 -2 -5 -5 -5 -3 0 -5 2 -5
5 0 3 2 5 5 5 3 0 5 -2 5 -5z m-320 -15 c0 -5 -7 -10 -15 -10 -8 0 -15 -5 -15
-11 0 -6 -6 -9 -14 -6 -7 3 -18 1 -24 -5 -6 -6 -16 -7 -23 -2 -11 6 16 25 43
28 3 1 10 4 14 9 11 10 34 9 34 -3z m306 -47 c-5 -12 -10 -13 -18 -5 -8 8 -8
15 3 28 15 18 25 4 15 -23z m-446 12 c0 -3 -2 -5 -5 -5 -3 0 -5 2 -5 5 0 3 2
5 5 5 3 0 5 -2 5 -5z m20 0 c0 -3 -2 -5 -5 -5 -3 0 -5 2 -5 5 0 3 2 5 5 5 3 0
5 -2 5 -5z m70 -10 c0 -3 -2 -5 -5 -5 -3 0 -5 2 -5 5 0 3 2 5 5 5 3 0 5 -2 5
-5z m-23 -12 c-4 -3 -10 -3 -14 0 -3 4 0 7 7 7 7 0 10 -3 7 -7z m23 -8 c0 -3
-2 -5 -5 -5 -3 0 -5 2 -5 5 0 3 2 5 5 5 3 0 5 -2 5 -5z M1253 2093 c4 -3 10
-3 14 0 3 4 0 7 -7 7 -7 0 -10 -3 -7 -7z M1105 2040 c-3 -6 1 -7 9 -4 18 7 21
14 7 14 -6 0 -13 -4 -16 -10z M1020 2030 c-9 -6 -10 -10 -3 -10 6 0 15 5 18
10 8 12 4 12 -15 0z M1197 2027 c-6 -17 22 -62 52 -83 19 -13 21 -13 21 0 0 8
-4 18 -10 21 -5 3 -10 19 -10 36 0 16 -4 29 -9 29 -5 0 -16 3 -24 6 -8 3 -17
-1 -20 -9z M1043 2013 c4 -3 10 -3 14 0 3 4 0 7 -7 7 -7 0 -10 -3 -7 -7z
M3500 1946 c0 -2 7 -7 16 -10 8 -3 12 -2 9 4 -6 10 -25 14 -25 6z M3600 1910
c0 -7 3 -10 7 -7 3 4 3 10 0 14 -4 3 -7 0 -7 -7z M3523 1773 c4 -3 10 -3 14 0
3 4 0 7 -7 7 -7 0 -10 -3 -7 -7z M3540 1700 c0 -7 3 -10 7 -7 3 4 3 10 0 14
-4 3 -7 0 -7 -7z M2850 1685 c0 -3 2 -5 5 -5 3 0 5 2 5 5 0 3 -2 5 -5 5 -3 0
-5 -2 -5 -5z M2960 1685 c0 -3 2 -5 5 -5 3 0 5 2 5 5 0 3 -2 5 -5 5 -3 0 -5
-2 -5 -5z M3323 1683 c4 -3 10 -3 14 0 3 4 0 7 -7 7 -7 0 -10 -3 -7 -7z M3030
1660 c0 -7 3 -10 7 -7 3 4 3 10 0 14 -4 3 -7 0 -7 -7z M2960 1635 c0 -3 2 -5
5 -5 3 0 5 2 5 5 0 3 -2 5 -5 5 -3 0 -5 -2 -5 -5z M2860 1620 c0 -7 3 -10 7
-7 3 4 3 10 0 14 -4 3 -7 0 -7 -7z M3521 1594 c0 -11 3 -14 6 -6 3 7 2 16 -1
19 -3 4 -6 -2 -5 -13z M2870 1585 c0 -3 2 -5 5 -5 3 0 5 2 5 5 0 3 -2 5 -5 5
-3 0 -5 -2 -5 -5z M3203 1544 c-24 -27 -30 -39 -13 -29 6 3 10 -1 10 -10 0 -9
-4 -14 -9 -10 -15 9 -23 -13 -12 -32 10 -17 10 -16 11 2 0 16 2 17 10 5 9 -15
9 -16 25 35 2 8 -1 15 -8 15 -7 1 -5 6 6 14 17 13 23 36 10 36 -5 0 -18 -12
-30 -26z M2831 1544 c0 -11 3 -14 6 -6 3 7 2 16 -1 19 -3 4 -6 -2 -5 -13z
M2860 1540 c0 -7 3 -10 7 -7 3 4 3 10 0 14 -4 3 -7 0 -7 -7z M3050 1525 c0 -3
2 -5 5 -5 3 0 5 2 5 5 0 3 -2 5 -5 5 -3 0 -5 -2 -5 -5z M3121 1514 c0 -11 3
-14 6 -6 3 7 2 16 -1 19 -3 4 -6 -2 -5 -13z M3280 1520 c0 -5 4 -10 9 -10 6 0
13 5 16 10 3 6 -1 10 -9 10 -9 0 -16 -4 -16 -10z M3370 1515 c0 -3 2 -5 5 -5
3 0 5 2 5 5 0 3 -2 5 -5 5 -3 0 -5 -2 -5 -5z M2880 1495 c0 -3 2 -5 5 -5 3 0
5 2 5 5 0 3 -2 5 -5 5 -3 0 -5 -2 -5 -5z M2880 1460 c0 -7 3 -10 7 -7 3 4 3
10 0 14 -4 3 -7 0 -7 -7z M3140 1460 c0 -7 3 -10 7 -7 3 4 3 10 0 14 -4 3 -7
0 -7 -7z M3043 1453 c4 -3 10 -3 14 0 3 4 0 7 -7 7 -7 0 -10 -3 -7 -7z M3318
1443 c7 -3 16 -2 19 1 4 3 -2 6 -13 5 -11 0 -14 -3 -6 -6z M2790 1380 c0 -7 3
-10 7 -7 3 4 3 10 0 14 -4 3 -7 0 -7 -7z M2880 1385 c0 -3 2 -5 5 -5 3 0 5 2
5 5 0 3 -2 5 -5 5 -3 0 -5 -2 -5 -5z M3240 1385 c0 -3 2 -5 5 -5 3 0 5 2 5 5
0 3 -2 5 -5 5 -3 0 -5 -2 -5 -5z M2360 1325 c0 -3 2 -5 5 -5 3 0 5 2 5 5 0 3
-2 5 -5 5 -3 0 -5 -2 -5 -5z M2603 1312 c-54 -15 -59 -22 -42 -57 8 -18 8 -18
6 5 -2 22 5 28 58 47 69 25 55 28 -22 5z M3130 1325 c0 -3 2 -5 5 -5 3 0 5 2
5 5 0 3 -2 5 -5 5 -3 0 -5 -2 -5 -5z M2820 1315 c0 -3 2 -5 5 -5 3 0 5 2 5 5
0 3 -2 5 -5 5 -3 0 -5 -2 -5 -5z M2870 1315 c0 -3 2 -5 5 -5 3 0 5 2 5 5 0 3
-2 5 -5 5 -3 0 -5 -2 -5 -5z M2960 1305 c0 -3 2 -5 5 -5 3 0 5 2 5 5 0 3 -2 5
-5 5 -3 0 -5 -2 -5 -5z M3030 1305 c0 -3 2 -5 5 -5 3 0 5 2 5 5 0 3 -2 5 -5 5
-3 0 -5 -2 -5 -5z M3423 1303 c4 -3 10 -3 14 0 3 4 0 7 -7 7 -7 0 -10 -3 -7
-7z M2868 1283 c6 -2 18 -2 25 0 6 3 1 5 -13 5 -14 0 -19 -2 -12 -5z M2978
1283 c12 -2 32 -2 45 0 12 2 2 4 -23 4 -25 0 -35 -2 -22 -4z M2370 1275 c0 -3
2 -5 5 -5 3 0 5 2 5 5 0 3 -2 5 -5 5 -3 0 -5 -2 -5 -5z M2448 1259 c18 -12 40
-35 48 -51 21 -41 2 -65 -28 -35 -43 44 -88 47 -140 11 -47 -33 -44 -40 8 -20
62 23 91 27 102 13 12 -15 7 -48 -8 -57 -7 -4 -11 -11 -10 -16 3 -15 -17 -15
-33 1 -11 11 -22 12 -39 6 -23 -10 -23 -10 -1 -10 12 -1 24 -5 27 -10 8 -13
76 -19 76 -6 0 5 6 3 13 -6 7 -9 32 -19 57 -23 25 -3 41 -3 35 1 -21 16 -16
42 7 41 47 -3 78 2 78 13 0 6 -11 8 -27 5 -81 -15 -108 -16 -90 -6 9 6 49 12
87 13 38 1 65 4 60 5 -16 6 -11 20 8 25 13 4 12 5 -5 6 -12 0 -24 -3 -28 -8
-3 -5 -31 -13 -63 -16 -31 -4 -66 -13 -77 -20 -11 -7 -29 -9 -40 -5 -15 5 -8
10 32 20 60 15 71 32 43 60 -11 11 -20 24 -20 29 0 19 -54 61 -79 61 -26 0
-26 0 7 -21z M3160 1270 l-45 -7 42 -1 c23 -1 45 3 48 8 3 6 5 9 3 8 -2 0 -23
-4 -48 -8z M2870 1265 c0 -3 2 -5 5 -5 3 0 5 2 5 5 0 3 -2 5 -5 5 -3 0 -5 -2
-5 -5z M2820 1245 c0 -3 2 -5 5 -5 3 0 5 2 5 5 0 3 -2 5 -5 5 -3 0 -5 -2 -5
-5z M2893 1243 c9 -2 23 -2 30 0 6 3 -1 5 -18 5 -16 0 -22 -2 -12 -5z M3123
1243 c4 -3 10 -3 14 0 3 4 0 7 -7 7 -7 0 -10 -3 -7 -7z M3192 1244 c23 -7 11
-34 -16 -34 -11 0 -30 -7 -40 -15 -25 -19 -20 -19 38 1 49 17 62 47 21 51 -15
1 -15 0 -3 -3z M2800 1235 c0 -3 2 -5 5 -5 3 0 5 2 5 5 0 3 -2 5 -5 5 -3 0 -5
-2 -5 -5z M2960 1235 c0 -3 2 -5 5 -5 3 0 5 2 5 5 0 3 -2 5 -5 5 -3 0 -5 -2
-5 -5z M2550 1225 c0 -3 2 -5 5 -5 3 0 5 2 5 5 0 3 -2 5 -5 5 -3 0 -5 -2 -5
-5z M2780 1220 c0 -7 3 -10 7 -7 3 4 3 10 0 14 -4 3 -7 0 -7 -7z M2880 1205
c0 -3 2 -5 5 -5 3 0 5 2 5 5 0 3 -2 5 -5 5 -3 0 -5 -2 -5 -5z M2880 1185 c0
-3 2 -5 5 -5 3 0 5 2 5 5 0 3 -2 5 -5 5 -3 0 -5 -2 -5 -5z M3010 1165 c7 -8
16 -15 21 -15 5 0 9 7 9 15 0 9 -9 15 -21 15 -18 0 -19 -2 -9 -15z M3180 1175
c0 -3 2 -5 5 -5 3 0 5 2 5 5 0 3 -2 5 -5 5 -3 0 -5 -2 -5 -5z M2960 1160 c0
-5 4 -10 9 -10 6 0 13 5 16 10 3 6 -1 10 -9 10 -9 0 -16 -4 -16 -10z M2880
1152 c0 -5 14 -7 30 -4 17 2 30 6 30 8 0 2 -13 4 -30 4 -16 0 -30 -4 -30 -8z
M2800 1145 c0 -3 2 -5 5 -5 3 0 5 2 5 5 0 3 -2 5 -5 5 -3 0 -5 -2 -5 -5z
M2300 1130 c0 -7 3 -10 7 -7 3 4 3 10 0 14 -4 3 -7 0 -7 -7z M2323 1123 c4 -3
10 -3 14 0 3 4 0 7 -7 7 -7 0 -10 -3 -7 -7z M2770 1125 c0 -3 2 -5 5 -5 3 0 5
2 5 5 0 3 -2 5 -5 5 -3 0 -5 -2 -5 -5z M2826 1121 c-4 -5 3 -7 14 -4 23 6 26
13 6 13 -8 0 -17 -4 -20 -9z M2400 1115 c0 -3 2 -5 5 -5 3 0 5 2 5 5 0 3 -2 5
-5 5 -3 0 -5 -2 -5 -5z M2620 1093 c-43 -8 -41 -19 4 -18 30 0 42 4 39 13 -3
6 -8 11 -12 11 -3 -1 -17 -4 -31 -6z M2592 1055 c-16 -19 -2 -19 34 0 29 15
29 15 4 15 -14 -1 -31 -7 -38 -15z M2645 1040 c-3 -5 -2 -10 4 -10 5 0 13 5
16 10 3 6 2 10 -4 10 -5 0 -13 -4 -16 -10z M1052 1868 c-12 -25 -19 -54 -16
-68 4 -18 -2 -32 -20 -49 -31 -29 -33 -56 -6 -71 11 -6 20 -8 20 -4 0 3 6 1
14 -5 15 -13 68 -11 77 2 4 6 13 -3 21 -18 9 -17 18 -24 22 -17 8 14 -15 52
-31 52 -21 0 -15 17 7 23 13 3 18 10 14 21 -7 19 -27 17 -35 -4 -5 -11 -9 -9
-17 11 -6 15 -17 29 -24 32 -8 3 -3 9 15 17 31 15 34 25 10 34 -12 5 -13 10
-6 17 12 12 -2 69 -17 69 -5 0 -17 -19 -28 -42z m38 -13 c0 -3 -2 -5 -5 -5 -3
0 -5 2 -5 5 0 3 2 5 5 5 3 0 5 -2 5 -5z m-10 -120 c13 -14 20 -25 15 -25 -5 0
-1 -6 10 -13 12 -10 14 -16 7 -21 -7 -4 -12 -3 -12 2 0 6 -8 8 -19 5 -22 -6
-54 24 -47 44 3 8 6 19 6 24 0 16 16 10 40 -16z M1040 1720 c0 -7 3 -10 7 -7
3 4 3 10 0 14 -4 3 -7 0 -7 -7z M1214 1858 c-4 -7 -3 -8 4 -4 7 4 23 -4 37
-18 14 -14 25 -21 25 -16 0 13 -37 50 -49 50 -6 0 -13 -5 -17 -12z M1393 1863
c4 -3 10 -3 14 0 3 4 0 7 -7 7 -7 0 -10 -3 -7 -7z M1310 1845 c0 -3 2 -5 5 -5
3 0 5 2 5 5 0 3 -2 5 -5 5 -3 0 -5 -2 -5 -5z M1342 1831 c7 -11 15 -18 19 -15
8 4 25 -63 21 -78 -1 -5 3 -8 8 -8 5 0 10 -9 10 -19 0 -11 6 -21 13 -24 8 -3
7 -10 -7 -26 -17 -19 -15 -26 7 -22 4 0 7 -3 7 -8 0 -5 12 -7 27 -5 32 6 43
15 25 21 -6 3 -9 10 -5 15 4 7 -1 9 -14 6 -18 -5 -19 -1 -16 28 2 20 -1 34 -7
34 -6 0 -8 5 -5 10 4 6 1 17 -5 25 -7 8 -9 26 -5 44 3 16 2 32 -3 35 -6 3 -8
-4 -6 -16 l5 -23 -12 23 c-8 15 -21 22 -41 22 -25 0 -27 -2 -16 -19z M871
1824 c0 -11 3 -14 6 -6 3 7 2 16 -1 19 -3 4 -6 -2 -5 -13z M1840 1810 c0 -7 3
-10 7 -7 3 4 3 10 0 14 -4 3 -7 0 -7 -7z M1307 1803 c-13 -13 -7 -21 13 -16
11 3 20 9 20 14 0 10 -24 12 -33 2z M860 1787 c9 -7 15 -20 14 -30 -1 -12 0
-13 3 -2 2 8 10 15 16 15 7 0 3 7 -7 15 -24 18 -48 20 -26 2z M2110 1795 c0
-3 2 -5 5 -5 3 0 5 2 5 5 0 3 -2 5 -5 5 -3 0 -5 -2 -5 -5z M1360 1780 c0 -7 3
-10 7 -7 3 4 3 10 0 14 -4 3 -7 0 -7 -7z M1615 1770 c19 -21 45 -27 45 -11 0
5 -14 14 -32 20 -31 11 -31 11 -13 -9z M1860 1761 c-6 -16 -17 -28 -23 -26
-50 15 -103 13 -114 -4 -11 -17 -7 -18 63 -18 52 1 78 -3 83 -12 12 -19 21 10
14 50 -6 44 -8 45 -23 10z M1890 1779 c0 -5 5 -7 10 -4 6 3 10 8 10 11 0 2 -4
4 -10 4 -5 0 -10 -5 -10 -11z M830 1775 c0 -3 2 -5 5 -5 3 0 5 2 5 5 0 3 -2 5
-5 5 -3 0 -5 -2 -5 -5z M1090 1776 c0 -9 30 -14 35 -6 4 6 -3 10 -14 10 -12 0
-21 -2 -21 -4z M1150 1775 c0 -3 2 -5 5 -5 3 0 5 2 5 5 0 3 -2 5 -5 5 -3 0 -5
-2 -5 -5z M1676 1764 c-11 -30 -6 -54 12 -54 14 0 15 2 2 10 -12 8 -11 10 8
10 12 0 22 4 22 10 0 5 -6 7 -14 4 -8 -3 -17 -1 -21 5 -3 6 1 11 10 11 9 0 13
5 10 10 -9 15 -22 12 -29 -6z M1830 1775 c0 -3 2 -5 5 -5 3 0 5 2 5 5 0 3 -2
5 -5 5 -3 0 -5 -2 -5 -5z M1330 1765 c0 -3 2 -5 5 -5 3 0 5 2 5 5 0 3 -2 5 -5
5 -3 0 -5 -2 -5 -5z M1480 1765 c0 -3 2 -5 5 -5 3 0 5 2 5 5 0 3 -2 5 -5 5 -3
0 -5 -2 -5 -5z M1580 1760 c0 -5 5 -10 10 -10 6 0 10 5 10 10 0 6 -4 10 -10
10 -5 0 -10 -4 -10 -10z M1840 1755 c0 -3 2 -5 5 -5 3 0 5 2 5 5 0 3 -2 5 -5
5 -3 0 -5 -2 -5 -5z M2064 1748 c-4 -7 -3 -8 4 -4 7 4 12 9 12 12 0 8 -9 4
-16 -8z M1490 1740 c-9 -6 -10 -10 -3 -10 6 0 15 5 18 10 8 12 4 12 -15 0z
M840 1735 c0 -3 2 -5 5 -5 3 0 5 2 5 5 0 3 -2 5 -5 5 -3 0 -5 -2 -5 -5z M1601
1738 c-3 -22 25 -58 43 -58 19 1 20 1 3 11 -9 6 -15 14 -12 20 4 5 0 9 -9 9
-8 0 -17 6 -19 13 -3 6 -6 9 -6 5z M880 1713 c0 -7 7 -10 15 -7 8 4 15 1 15
-5 0 -6 5 -11 10 -11 6 0 10 8 10 18 0 12 -8 17 -25 17 -14 0 -25 -5 -25 -12z
M1934 1716 c22 -18 66 -22 66 -6 0 6 -11 10 -24 10 -13 0 -33 3 -43 6 -16 5
-16 4 1 -10z M1360 1700 c0 -11 4 -20 9 -20 5 0 7 9 4 20 -3 11 -7 20 -9 20
-2 0 -4 -9 -4 -20z M1760 1695 c0 -3 2 -5 5 -5 3 0 5 2 5 5 0 3 -2 5 -5 5 -3
0 -5 -2 -5 -5z M878 1673 c12 -21 36 -26 39 -8 0 6 -4 9 -9 7 -6 -1 -17 3 -26
10 -13 11 -14 10 -4 -9z M1195 1680 c3 -5 8 -10 11 -10 3 0 2 5 -1 10 -3 6 -8
10 -11 10 -3 0 -2 -4 1 -10z M1558 1683 c7 -3 16 -2 19 1 4 3 -2 6 -13 5 -11
0 -14 -3 -6 -6z M1703 1683 c4 -3 10 -3 14 0 3 4 0 7 -7 7 -7 0 -10 -3 -7 -7z
M1780 1680 c0 -7 3 -10 7 -7 3 4 3 10 0 14 -4 3 -7 0 -7 -7z M1960 1671 c0
-23 11 -33 26 -23 18 12 12 42 -8 42 -11 0 -18 -7 -18 -19z M2100 1680 c0 -7
3 -10 7 -7 3 4 3 10 0 14 -4 3 -7 0 -7 -7z M2037 1672 c-4 -5 -2 -23 2 -40 7
-22 6 -32 -2 -36 -7 -2 -5 -5 4 -5 8 -1 24 6 35 14 19 15 19 15 -1 8 -18 -6
-19 -5 -6 11 13 15 12 20 -6 38 -11 11 -23 16 -26 10z M1560 1650 c0 -5 5 -10
10 -10 6 0 10 5 10 10 0 6 -4 10 -10 10 -5 0 -10 -4 -10 -10z M1657 1653 c-13
-13 -7 -32 8 -27 11 4 15 0 15 -16 0 -13 5 -20 13 -17 6 2 24 -5 40 -15 15
-11 27 -17 27 -14 0 12 -41 46 -55 46 -8 0 -17 11 -21 25 -6 25 -15 31 -27 18z
M1776 1651 c-4 -7 -5 -15 -2 -18 9 -9 19 4 14 18 -4 11 -6 11 -12 0z M1086
1643 c-11 -11 -6 -23 9 -23 8 0 15 4 15 9 0 13 -16 22 -24 14z M1194 1633 c-4
-15 -14 -23 -28 -23 -16 0 -18 -2 -7 -9 9 -6 23 -5 38 2 26 11 27 15 13 37 -8
13 -11 11 -16 -7z M1600 1634 c0 -8 5 -12 10 -9 6 3 10 10 10 16 0 5 -4 9 -10
9 -5 0 -10 -7 -10 -16z M1726 1637 c3 -10 9 -15 12 -12 3 3 0 11 -7 18 -10 9
-11 8 -5 -6z M1020 1630 c0 -7 3 -10 7 -7 3 4 3 10 0 14 -4 3 -7 0 -7 -7z
M1041 1623 c-1 -17 5 -23 18 -23 32 0 34 -17 4 -28 -16 -6 -23 -11 -18 -11 6
0 28 5 49 13 37 13 38 14 18 25 -11 6 -30 11 -41 11 -11 0 -22 8 -24 18 -4 13
-5 11 -6 -5z M2000 1635 c0 -3 2 -5 5 -5 3 0 5 2 5 5 0 3 -2 5 -5 5 -3 0 -5
-2 -5 -5z M917 1600 c3 -11 11 -25 19 -31 19 -15 18 -39 -1 -39 -8 0 -15 5
-15 10 0 6 -4 10 -10 10 -18 0 -10 -16 15 -30 21 -11 22 -15 10 -24 -17 -13
-9 -56 10 -56 9 0 14 18 17 53 5 70 0 89 -27 109 -22 17 -23 17 -18 -2z M1123
1613 c4 -3 10 -3 14 0 3 4 0 7 -7 7 -7 0 -10 -3 -7 -7z M1510 1615 c0 -3 2 -5
5 -5 3 0 5 2 5 5 0 3 -2 5 -5 5 -3 0 -5 -2 -5 -5z M1570 1610 c0 -7 3 -10 7
-7 3 4 3 10 0 14 -4 3 -7 0 -7 -7z M880 1600 c0 -5 5 -10 10 -10 6 0 10 5 10
10 0 6 -4 10 -10 10 -5 0 -10 -4 -10 -10z M1621 1597 c-16 -16 -14 -24 9 -30
11 -3 20 -1 20 4 0 4 7 6 15 3 23 -9 18 2 -9 19 -17 12 -26 13 -35 4z M1760
1600 c0 -5 5 -10 10 -10 6 0 10 5 10 10 0 6 -4 10 -10 10 -5 0 -10 -4 -10 -10z
M1260 1586 c0 -9 5 -16 10 -16 6 0 10 4 10 9 0 6 -4 13 -10 16 -5 3 -10 -1
-10 -9z M1200 1580 c0 -5 12 -10 28 -9 24 0 25 1 7 9 -27 12 -35 12 -35 0z
M1150 1575 c0 -3 2 -5 5 -5 3 0 5 2 5 5 0 3 -2 5 -5 5 -3 0 -5 -2 -5 -5z
M1020 1560 c0 -7 3 -10 7 -7 3 4 3 10 0 14 -4 3 -7 0 -7 -7z M1510 1555 c0 -3
2 -5 5 -5 3 0 5 2 5 5 0 3 -2 5 -5 5 -3 0 -5 -2 -5 -5z M1673 1553 c-17 -6
-16 -20 1 -26 10 -4 14 0 13 14 -1 10 -1 19 -2 18 0 0 -6 -3 -12 -6z M1055
1523 c-57 -31 -79 -81 -49 -114 13 -15 15 -22 6 -31 -9 -9 -12 -9 -13 3 0 7
-5 1 -10 -16 -5 -19 -5 -31 1 -33 6 -2 6 -11 0 -23 -6 -10 -7 -19 -3 -19 4 0
2 -5 -5 -12 -7 -7 -12 -19 -12 -28 0 -8 8 1 17 20 10 19 21 37 25 38 12 5 10
32 -2 32 -5 0 -10 5 -10 11 0 6 9 9 20 6 17 -4 19 -2 13 21 -14 54 -10 67 25
77 17 5 32 13 32 17 0 15 19 8 23 -9 4 -14 5 -12 6 5 1 19 7 22 44 24 90 3
137 -6 137 -27 0 -8 9 -15 20 -15 15 0 19 6 17 29 -1 16 -4 29 -7 29 -30 -2
-44 3 -30 12 10 6 5 9 -20 8 -19 -1 -71 2 -115 5 -64 5 -86 3 -110 -10z M1500
1535 c0 -3 2 -5 5 -5 3 0 5 2 5 5 0 3 -2 5 -5 5 -3 0 -5 -2 -5 -5z M1548 1533
c6 -2 18 -2 25 0 6 3 1 5 -13 5 -14 0 -19 -2 -12 -5z M1603 1523 c4 -3 10 -3
14 0 3 4 0 7 -7 7 -7 0 -10 -3 -7 -7z M1515 1499 c-4 -6 -4 -13 -1 -16 3 -4 6
-1 6 5 0 6 8 13 18 15 15 4 15 5 0 6 -9 0 -20 -4 -23 -10z M880 1469 c0 -5 5
-7 10 -4 6 3 10 8 10 11 0 2 -4 4 -10 4 -5 0 -10 -5 -10 -11z M1206 1473 c-33
-5 -62 -28 -46 -38 5 -3 10 -2 10 4 0 9 42 22 82 26 10 1 21 4 24 8 8 7 -20 7
-70 0z M850 1455 c0 -3 2 -5 5 -5 3 0 5 2 5 5 0 3 -2 5 -5 5 -3 0 -5 -2 -5 -5z
M1105 1420 c3 -5 8 -10 11 -10 2 0 4 5 4 10 0 6 -5 10 -11 10 -5 0 -7 -4 -4
-10z M935 1400 c-3 -5 1 -10 10 -10 9 0 13 5 10 10 -3 6 -8 10 -10 10 -2 0 -7
-4 -10 -10z M1070 1375 c0 -3 2 -5 5 -5 3 0 5 2 5 5 0 3 -2 5 -5 5 -3 0 -5 -2
-5 -5z M938 1363 c7 -3 16 -2 19 1 4 3 -2 6 -13 5 -11 0 -14 -3 -6 -6z M1360
1355 c0 -3 2 -5 5 -5 3 0 5 2 5 5 0 3 -2 5 -5 5 -3 0 -5 -2 -5 -5z M960 1215
c0 -3 2 -5 5 -5 3 0 5 2 5 5 0 3 -2 5 -5 5 -3 0 -5 -2 -5 -5z M1980 1881 c0
-12 29 -35 36 -28 4 3 -1 13 -9 22 -17 17 -27 19 -27 6z M2170 1845 c0 -3 2
-5 5 -5 3 0 5 2 5 5 0 3 -2 5 -5 5 -3 0 -5 -2 -5 -5z M2160 1825 c0 -3 2 -5 5
-5 3 0 5 2 5 5 0 3 -2 5 -5 5 -3 0 -5 -2 -5 -5z M2241 1794 c0 -11 3 -14 6 -6
3 7 2 16 -1 19 -3 4 -6 -2 -5 -13z M2210 1780 c0 -7 3 -10 7 -7 3 4 3 10 0 14
-4 3 -7 0 -7 -7z M2280 1785 c0 -3 2 -5 5 -5 3 0 5 2 5 5 0 3 -2 5 -5 5 -3 0
-5 -2 -5 -5z M2268 1753 c-16 -2 -28 -11 -28 -19 0 -20 27 -17 52 6 12 11 18
19 12 19 -5 -1 -21 -4 -36 -6z M2230 1700 c0 -7 3 -10 7 -7 3 4 3 10 0 14 -4
3 -7 0 -7 -7z M2400 1705 c0 -3 2 -5 5 -5 3 0 5 2 5 5 0 3 -2 5 -5 5 -3 0 -5
-2 -5 -5z M2273 1693 c9 -2 25 -2 35 0 9 3 1 5 -18 5 -19 0 -27 -2 -17 -5z
M2348 1683 c7 -3 16 -2 19 1 4 3 -2 6 -13 5 -11 0 -14 -3 -6 -6z M2310 1645
c0 -3 2 -5 5 -5 3 0 5 2 5 5 0 3 -2 5 -5 5 -3 0 -5 -2 -5 -5z M2240 1619 c0
-5 5 -7 10 -4 6 3 10 8 10 11 0 2 -4 4 -10 4 -5 0 -10 -5 -10 -11z M2290 1620
c0 -5 -7 -10 -15 -10 -9 0 -15 -9 -15 -22 l0 -21 19 21 c10 12 23 22 30 22 6
0 11 5 11 10 0 6 -7 10 -15 10 -8 0 -15 -4 -15 -10z M2206 1590 c3 -14 6 -33
7 -42 2 -22 27 -24 27 -3 0 8 -4 15 -9 15 -5 0 -14 12 -20 28 -10 23 -10 24
-5 2z M2470 1570 c0 -7 3 -10 7 -7 3 4 3 10 0 14 -4 3 -7 0 -7 -7z M2261 1544
c0 -11 3 -14 6 -6 3 7 2 16 -1 19 -3 4 -6 -2 -5 -13z M2430 1535 c0 -3 2 -5 5
-5 3 0 5 2 5 5 0 3 -2 5 -5 5 -3 0 -5 -2 -5 -5z M2700 1460 c0 -7 3 -10 7 -7
3 4 3 10 0 14 -4 3 -7 0 -7 -7z M3393 1393 c4 -3 10 -3 14 0 3 4 0 7 -7 7 -7
0 -10 -3 -7 -7z M786 1302 c-2 -4 0 -16 5 -27 6 -16 8 -17 8 -3 1 9 9 18 19
20 14 3 13 5 -5 10 -13 3 -25 3 -27 0z M855 1200 c-3 -5 -1 -10 4 -10 6 0 11
5 11 10 0 6 -2 10 -4 10 -3 0 -8 -4 -11 -10z M830 1165 c0 -3 2 -5 5 -5 3 0 5
2 5 5 0 3 -2 5 -5 5 -3 0 -5 -2 -5 -5z M850 1150 c0 -5 5 -10 10 -10 6 0 10 5
10 10 0 6 -4 10 -10 10 -5 0 -10 -4 -10 -10z M800 1010 c0 -5 5 -10 10 -10 6
0 10 5 10 10 0 6 -4 10 -10 10 -5 0 -10 -4 -10 -10z M1916 2178 c-10 -23 10
-57 38 -64 17 -4 22 -11 19 -25 -8 -29 13 -23 36 10 29 40 27 44 -16 37 -45
-7 -60 0 -65 34 -4 20 -6 22 -12 8z M1595 2060 c-3 -5 -1 -10 4 -10 6 0 11 5
11 10 0 6 -2 10 -4 10 -3 0 -8 -4 -11 -10z M1920 2015 c0 -3 2 -5 5 -5 3 0 5
2 5 5 0 3 -2 5 -5 5 -3 0 -5 -2 -5 -5z M1893 2003 c4 -3 10 -3 14 0 3 4 0 7
-7 7 -7 0 -10 -3 -7 -7z M1980 1520 c0 -5 5 -10 10 -10 6 0 10 5 10 10 0 6 -4
10 -10 10 -5 0 -10 -4 -10 -10z M2000 1469 c0 -5 -5 -7 -10 -4 -21 13 -70 -6
-70 -26 0 -11 -7 -33 -15 -49 -9 -17 -12 -30 -8 -30 5 0 4 -4 -2 -8 -30 -21
-76 -112 -58 -112 14 0 83 71 83 86 0 8 5 14 10 14 6 0 10 6 10 13 0 32 32 76
59 82 22 5 28 10 24 26 -6 20 -23 27 -23 8z M1770 1433 c-19 -9 -81 -63 -138
-120 -80 -81 -114 -108 -155 -123 -66 -25 -72 -25 -53 2 24 33 19 45 -5 14
-11 -14 -17 -30 -14 -36 3 -5 -1 -10 -10 -10 -9 0 -13 -5 -10 -10 4 -7 12 -7
18 -2 7 4 44 19 82 32 86 29 157 82 253 189 41 44 72 81 70 81 -2 0 -19 -8
-38 -17z M2025 1420 c3 -5 8 -10 11 -10 2 0 4 5 4 10 0 6 -5 10 -11 10 -5 0
-7 -4 -4 -10z M2033 1393 c4 -3 10 -3 14 0 3 4 0 7 -7 7 -7 0 -10 -3 -7 -7z
M2020 1360 c0 -5 7 -10 15 -10 8 0 15 5 15 10 0 6 -7 10 -15 10 -8 0 -15 -4
-15 -10z M2080 1365 c0 -3 2 -5 5 -5 3 0 5 2 5 5 0 3 -2 5 -5 5 -3 0 -5 -2 -5
-5z M1620 1355 c0 -3 2 -5 5 -5 3 0 5 2 5 5 0 3 -2 5 -5 5 -3 0 -5 -2 -5 -5z
M1528 1270 c-39 -38 -64 -70 -56 -70 12 0 94 79 127 123 29 38 -4 13 -71 -53z
M1840 1335 c0 -3 2 -5 5 -5 3 0 5 2 5 5 0 3 -2 5 -5 5 -3 0 -5 -2 -5 -5z
M2080 1331 c0 -5 -7 -17 -16 -25 -8 -9 -11 -16 -5 -16 6 0 14 0 19 0 4 0 7 4
7 9 0 5 3 13 8 17 10 11 9 24 -3 24 -5 0 -10 -4 -10 -9z M1510 1295 c0 -3 2
-5 5 -5 3 0 5 2 5 5 0 3 -2 5 -5 5 -3 0 -5 -2 -5 -5z M1490 1285 c0 -3 2 -5 5
-5 3 0 5 2 5 5 0 3 -2 5 -5 5 -3 0 -5 -2 -5 -5z M1780 1285 c0 -3 2 -5 5 -5 3
0 5 2 5 5 0 3 -2 5 -5 5 -3 0 -5 -2 -5 -5z M1820 1285 c0 -3 2 -5 5 -5 3 0 5
2 5 5 0 3 -2 5 -5 5 -3 0 -5 -2 -5 -5z M2045 1248 c3 -7 -6 -25 -20 -40 -25
-27 -33 -58 -15 -58 6 0 10 5 10 11 0 16 56 69 74 69 24 0 19 17 -6 24 -35 9
-48 7 -43 -6z M2120 1209 c0 -11 4 -18 10 -14 5 3 7 12 3 20 -7 21 -13 19 -13
-6z M1592 1193 c-3 -35 -6 -38 -54 -53 -44 -13 -148 -60 -148 -67 0 -6 55 10
98 29 24 11 53 18 65 16 l22 -3 -22 -20 c-13 -11 -23 -25 -23 -32 0 -7 -5 -13
-11 -13 -5 0 -8 -4 -4 -10 3 -5 12 -7 20 -4 10 4 12 0 8 -15 -3 -12 -9 -21
-14 -21 -4 0 -7 -9 -6 -20 2 -35 31 -18 43 25 8 29 8 42 0 47 -8 5 -7 8 2 8 6
0 12 9 12 19 0 11 5 21 10 23 13 4 25 104 13 111 -5 3 -10 -6 -11 -20z M2170
1205 c0 -3 2 -5 5 -5 3 0 5 2 5 5 0 3 -2 5 -5 5 -3 0 -5 -2 -5 -5z M2077 1176
c-4 -10 0 -12 14 -9 22 6 26 23 5 23 -8 0 -16 -6 -19 -14z M1473 1153 c4 -3
10 -3 14 0 3 4 0 7 -7 7 -7 0 -10 -3 -7 -7z M2160 1151 c0 -5 7 -11 14 -14 10
-4 13 -1 9 9 -6 15 -23 19 -23 5z M1093 1125 c-23 -18 -37 -43 -53 -93 -11
-37 -26 -75 -31 -85 -6 -11 -8 -21 -6 -23 12 -12 61 100 66 150 0 7 15 28 33
45 38 37 35 40 -9 6z M1335 1135 c-16 -8 -23 -14 -14 -15 8 0 24 7 35 15 23
18 18 18 -21 0z M1410 1135 c0 -3 2 -5 5 -5 3 0 5 2 5 5 0 3 -2 5 -5 5 -3 0
-5 -2 -5 -5z M1980 1135 c0 -3 2 -5 5 -5 3 0 5 2 5 5 0 3 -2 5 -5 5 -3 0 -5
-2 -5 -5z M3440 1135 c0 -3 2 -5 5 -5 3 0 5 2 5 5 0 3 -2 5 -5 5 -3 0 -5 -2
-5 -5z M3530 1135 c0 -3 2 -5 5 -5 3 0 5 2 5 5 0 3 -2 5 -5 5 -3 0 -5 -2 -5
-5z M2109 1103 c-13 -15 -11 -16 11 -10 14 4 34 7 45 8 l20 0 -20 9 c-30 13
-41 12 -56 -7z M1235 1085 c-22 -13 -47 -27 -55 -31 -25 -12 -63 -44 -53 -44
6 0 29 14 52 31 24 17 49 28 57 25 9 -3 12 -1 9 4 -5 8 4 13 25 12 3 0 11 6
18 14 21 23 -7 17 -53 -11z M2007 1098 c-15 -5 -25 -14 -21 -19 3 -5 13 -5 24
1 10 5 30 10 44 10 14 0 26 5 26 10 0 12 -36 12 -73 -2z M3453 1103 c-7 -2
-13 -12 -13 -21 1 -16 2 -16 14 0 7 10 17 14 21 10 5 -4 5 -1 1 6 -4 6 -8 12
-9 11 -1 0 -8 -3 -14 -6z M3490 1105 c0 -3 2 -5 5 -5 3 0 5 2 5 5 0 3 -2 5 -5
5 -3 0 -5 -2 -5 -5z M2236 1083 c-6 -14 -5 -15 5 -6 7 7 10 15 7 18 -3 3 -9
-2 -12 -12z M1160 1080 c0 -7 3 -10 7 -7 3 4 3 10 0 14 -4 3 -7 0 -7 -7z
M1120 1065 c-6 -8 -10 -19 -8 -24 1 -6 8 1 15 14 13 28 11 31 -7 10z M2156
1065 c-3 -8 -1 -15 4 -15 6 0 10 7 10 15 0 8 -2 15 -4 15 -2 0 -6 -7 -10 -15z
M1350 1055 c0 -3 2 -5 5 -5 3 0 5 2 5 5 0 3 -2 5 -5 5 -3 0 -5 -2 -5 -5z
M1910 1055 c0 -3 2 -5 5 -5 3 0 5 2 5 5 0 3 -2 5 -5 5 -3 0 -5 -2 -5 -5z
M3103 1053 c4 -3 10 -3 14 0 3 4 0 7 -7 7 -7 0 -10 -3 -7 -7z M3208 1053 c7
-3 16 -2 19 1 4 3 -2 6 -13 5 -11 0 -14 -3 -6 -6z M1480 1045 c0 -3 2 -5 5 -5
3 0 5 2 5 5 0 3 -2 5 -5 5 -3 0 -5 -2 -5 -5z M2000 1045 c0 -3 2 -5 5 -5 3 0
5 2 5 5 0 3 -2 5 -5 5 -3 0 -5 -2 -5 -5z M2050 1045 c0 -3 2 -5 5 -5 3 0 5 2
5 5 0 3 -2 5 -5 5 -3 0 -5 -2 -5 -5z M2123 1043 c4 -3 10 -3 14 0 3 4 0 7 -7
7 -7 0 -10 -3 -7 -7z M2180 1045 c0 -3 2 -5 5 -5 3 0 5 2 5 5 0 3 -2 5 -5 5
-3 0 -5 -2 -5 -5z M3143 1043 c4 -3 10 -3 14 0 3 4 0 7 -7 7 -7 0 -10 -3 -7
-7z M3283 1043 c4 -3 10 -3 14 0 3 4 0 7 -7 7 -7 0 -10 -3 -7 -7z M3413 1043
c4 -3 10 -3 14 0 3 4 0 7 -7 7 -7 0 -10 -3 -7 -7z M1445 1031 c-6 -11 9 -23
19 -14 9 9 7 23 -3 23 -6 0 -12 -4 -16 -9z M1920 1030 c0 -7 3 -10 7 -7 3 4 3
10 0 14 -4 3 -7 0 -7 -7z M3210 1030 c20 -13 53 -13 45 0 -3 6 -18 10 -33 10
-21 0 -24 -2 -12 -10z M3350 1025 c0 -3 2 -5 5 -5 3 0 5 2 5 5 0 3 -2 5 -5 5
-3 0 -5 -2 -5 -5z M1520 1015 c0 -3 2 -5 5 -5 3 0 5 2 5 5 0 3 -2 5 -5 5 -3 0
-5 -2 -5 -5z M1977 1009 c-9 -6 -17 -16 -17 -23 0 -7 -11 -22 -25 -34 -29 -26
-34 -48 -7 -33 19 10 41 35 60 69 16 28 13 34 -11 21z M2023 1013 c4 -3 10 -3
14 0 3 4 0 7 -7 7 -7 0 -10 -3 -7 -7z M2240 1015 c0 -3 2 -5 5 -5 3 0 5 2 5 5
0 3 -2 5 -5 5 -3 0 -5 -2 -5 -5z M1195 1000 c-7 -12 2 -30 16 -30 5 0 9 9 9
20 0 21 -15 27 -25 10z M2070 1000 c0 -5 5 -10 11 -10 5 0 7 5 4 10 -3 6 -8
10 -11 10 -2 0 -4 -4 -4 -10z M3078 1003 c7 -3 16 -2 19 1 4 3 -2 6 -13 5 -11
0 -14 -3 -6 -6z M3130 1000 c0 -5 5 -10 11 -10 5 0 7 5 4 10 -3 6 -8 10 -11
10 -2 0 -4 -4 -4 -10z M1084 988 c-4 -7 -3 -8 4 -4 12 7 16 16 8 16 -3 0 -8
-5 -12 -12z M2192 984 c10 -10 20 -16 22 -13 3 3 -5 11 -17 18 -21 13 -21 12
-5 -5z M2250 990 c0 -7 3 -10 7 -7 3 4 3 10 0 14 -4 3 -7 0 -7 -7z M2900 995
c0 -3 2 -5 5 -5 3 0 5 2 5 5 0 3 -2 5 -5 5 -3 0 -5 -2 -5 -5z M3680 995 c0 -3
2 -5 5 -5 3 0 5 2 5 5 0 3 -2 5 -5 5 -3 0 -5 -2 -5 -5z M1280 985 c0 -3 2 -5
5 -5 3 0 5 2 5 5 0 3 -2 5 -5 5 -3 0 -5 -2 -5 -5z M1473 974 c-15 -16 -16 -24
-4 -24 8 0 24 30 19 35 -2 2 -9 -3 -15 -11z M2988 978 c9 -9 15 -9 24 0 9 9 7
12 -12 12 -19 0 -21 -3 -12 -12z M3304 975 c-20 -15 -11 -18 20 -6 11 4 15 10
9 14 -5 3 -19 0 -29 -8z M980 970 c0 -7 3 -10 7 -7 3 4 3 10 0 14 -4 3 -7 0
-7 -7z M1155 937 c-11 -23 -28 -51 -38 -61 -9 -11 -26 -38 -36 -60 -102 -217
-102 -220 -77 -210 14 5 66 104 66 124 0 6 13 31 29 57 26 41 30 44 33 23 2
-17 12 -1 36 59 31 75 36 111 15 111 -4 0 -17 -19 -28 -43z M2040 971 c0 -6 5
-13 10 -16 6 -3 10 1 10 9 0 9 -4 16 -10 16 -5 0 -10 -4 -10 -9z M2283 973 c4
-3 10 -3 14 0 3 4 0 7 -7 7 -7 0 -10 -3 -7 -7z M3183 973 c4 -3 10 -3 14 0 3
4 0 7 -7 7 -7 0 -10 -3 -7 -7z M3263 973 c4 -3 10 -3 14 0 3 4 0 7 -7 7 -7 0
-10 -3 -7 -7z M3360 970 c0 -7 3 -10 7 -7 3 4 3 10 0 14 -4 3 -7 0 -7 -7z
M3720 975 c0 -3 2 -5 5 -5 3 0 5 2 5 5 0 3 -2 5 -5 5 -3 0 -5 -2 -5 -5z M860
944 c-6 -14 -10 -30 -10 -35 0 -5 -4 -9 -10 -9 -5 0 -13 -18 -16 -40 -4 -24
-12 -40 -20 -40 -8 0 -14 -7 -14 -15 0 -29 47 25 59 68 7 23 19 54 26 70 8 15
10 27 4 27 -5 0 -14 -12 -19 -26z M1430 965 c0 -3 2 -5 5 -5 3 0 5 2 5 5 0 3
-2 5 -5 5 -3 0 -5 -2 -5 -5z M2093 956 c-36 -17 -30 -37 7 -23 29 11 38 22 23
30 -5 2 -18 -1 -30 -7z M2150 960 c0 -7 3 -10 7 -7 3 4 3 10 0 14 -4 3 -7 0
-7 -7z M2230 960 c0 -7 3 -10 7 -7 3 4 3 10 0 14 -4 3 -7 0 -7 -7z M3403 963
c4 -3 10 -3 14 0 3 4 0 7 -7 7 -7 0 -10 -3 -7 -7z M2863 953 c4 -3 10 -3 14 0
3 4 0 7 -7 7 -7 0 -10 -3 -7 -7z M2905 950 c-3 -5 3 -10 15 -10 12 0 18 5 15
10 -3 6 -10 10 -15 10 -5 0 -12 -4 -15 -10z M2320 945 c0 -3 2 -5 5 -5 3 0 5
2 5 5 0 3 -2 5 -5 5 -3 0 -5 -2 -5 -5z M2970 939 c0 -5 16 -10 35 -10 19 -1
40 -2 47 -3 6 -1 13 4 15 9 1 6 -19 11 -47 12 -28 1 -50 -3 -50 -8z M960 921
c-7 -15 -7 -21 0 -21 12 0 25 28 17 36 -3 3 -10 -4 -17 -15z M1530 924 c0 -14
3 -14 15 -4 8 7 15 14 15 16 0 2 -7 4 -15 4 -8 0 -15 -7 -15 -16z M2950 925
c0 -8 4 -15 10 -15 5 0 7 7 4 15 -4 8 -8 15 -10 15 -2 0 -4 -7 -4 -15z M3121
924 c0 -11 3 -14 6 -6 3 7 2 16 -1 19 -3 4 -6 -2 -5 -13z M1080 915 c-6 -8
-10 -19 -8 -26 2 -6 9 0 16 15 13 29 10 33 -8 11z M3150 921 c0 -4 11 -6 25
-3 14 2 25 6 25 8 0 2 -11 4 -25 4 -14 0 -25 -4 -25 -9z M3270 925 c0 -3 2 -5
5 -5 3 0 5 2 5 5 0 3 -2 5 -5 5 -3 0 -5 -2 -5 -5z M2230 915 c0 -3 2 -5 5 -5
3 0 5 2 5 5 0 3 -2 5 -5 5 -3 0 -5 -2 -5 -5z M2520 916 c0 -2 7 -9 15 -16 13
-11 14 -10 9 4 -5 14 -24 23 -24 12z M3088 913 c7 -3 16 -2 19 1 4 3 -2 6 -13
5 -11 0 -14 -3 -6 -6z M2180 900 c-12 -8 -10 -10 8 -10 13 0 20 4 17 10 -7 12
-6 12 -25 0z M2560 896 c0 -8 5 -18 12 -22 7 -4 8 -3 4 4 -4 7 -1 12 9 12 11
0 15 -5 12 -15 -7 -16 41 -75 60 -75 6 0 19 -10 27 -22 9 -12 16 -20 17 -18 0
3 2 13 4 23 2 11 -5 19 -21 23 -27 7 -30 14 -12 32 17 17 -13 16 -31 0 -11
-10 -12 -10 -7 -1 4 7 2 21 -3 30 -8 14 -11 15 -12 3 0 -8 -4 -4 -8 10 -8 28
-51 42 -51 16z m130 -101 c0 -3 -2 -5 -5 -5 -3 0 -5 2 -5 5 0 3 2 5 5 5 3 0 5
-2 5 -5z M990 895 c0 -3 2 -5 5 -5 3 0 5 2 5 5 0 3 -2 5 -5 5 -3 0 -5 -2 -5
-5z M1212 875 c-7 -14 -12 -35 -12 -45 0 -11 -4 -20 -10 -20 -5 0 -10 -9 -10
-21 0 -11 -5 -29 -10 -40 -6 -10 -7 -19 -3 -19 11 0 50 91 59 135 7 41 2 45
-14 10z M1443 893 c4 -3 10 -3 14 0 3 4 0 7 -7 7 -7 0 -10 -3 -7 -7z M1570
880 c-6 -11 -18 -20 -27 -20 -13 0 -14 -3 -6 -11 9 -9 20 -6 45 9 18 12 29 22
23 22 -5 0 -3 5 5 10 12 8 11 10 -7 10 -12 0 -27 -9 -33 -20z M2080 895 c0 -3
2 -5 5 -5 3 0 5 2 5 5 0 3 -2 5 -5 5 -3 0 -5 -2 -5 -5z M3160 895 c0 -3 2 -5
5 -5 3 0 5 2 5 5 0 3 -2 5 -5 5 -3 0 -5 -2 -5 -5z M901 874 c-18 -21 -6 -30
14 -11 8 9 15 18 15 21 0 11 -15 5 -29 -10z M2050 885 c0 -3 2 -5 5 -5 3 0 5
2 5 5 0 3 -2 5 -5 5 -3 0 -5 -2 -5 -5z M2111 874 c0 -11 3 -14 6 -6 3 7 2 16
-1 19 -3 4 -6 -2 -5 -13z M2446 874 c-14 -37 15 -87 37 -65 6 6 16 11 22 11 5
0 3 -5 -5 -10 -13 -8 -13 -10 1 -10 9 0 26 -20 39 -45 19 -36 26 -43 32 -31
10 17 -6 56 -22 56 -6 0 -10 9 -10 19 0 11 -9 23 -21 26 -14 5 -19 13 -16 26
3 12 0 19 -10 19 -8 0 -11 5 -8 10 3 6 -3 10 -13 10 -11 0 -23 -7 -26 -16z
m29 -13 c3 -5 1 -12 -5 -16 -5 -3 -10 1 -10 9 0 18 6 21 15 7z m15 -26 c0 -3
-2 -5 -5 -5 -3 0 -5 2 -5 5 0 3 2 5 5 5 3 0 5 -2 5 -5z M3270 885 c0 -3 2 -5
5 -5 3 0 5 2 5 5 0 3 -2 5 -5 5 -3 0 -5 -2 -5 -5z M3440 886 c0 -2 7 -7 16
-10 8 -3 12 -2 9 4 -6 10 -25 14 -25 6z M1511 864 c0 -11 3 -14 6 -6 3 7 2 16
-1 19 -3 4 -6 -2 -5 -13z M2320 870 c0 -5 5 -10 11 -10 5 0 7 5 4 10 -3 6 -8
10 -11 10 -2 0 -4 -4 -4 -10z M2883 873 c4 -3 10 -3 14 0 3 4 0 7 -7 7 -7 0
-10 -3 -7 -7z M3013 873 c4 -3 10 -3 14 0 3 4 0 7 -7 7 -7 0 -10 -3 -7 -7z
M3200 875 c0 -3 2 -5 5 -5 3 0 5 2 5 5 0 3 -2 5 -5 5 -3 0 -5 -2 -5 -5z M2360
865 c0 -3 2 -5 5 -5 3 0 5 2 5 5 0 3 -2 5 -5 5 -3 0 -5 -2 -5 -5z M3840 865
c0 -3 2 -5 5 -5 3 0 5 2 5 5 0 3 -2 5 -5 5 -3 0 -5 -2 -5 -5z M1050 855 c0 -3
2 -5 5 -5 3 0 5 2 5 5 0 3 -2 5 -5 5 -3 0 -5 -2 -5 -5z M2954 845 c-4 -8 -13
-15 -22 -15 -8 0 -12 -3 -9 -7 8 -8 57 17 57 29 0 14 -20 9 -26 -7z M870 845
c0 -3 2 -5 5 -5 3 0 5 2 5 5 0 3 -2 5 -5 5 -3 0 -5 -2 -5 -5z M2326 843 c-3
-3 -3 -10 0 -14 7 -12 34 -11 34 0 0 11 -26 22 -34 14z M2520 845 c0 -3 2 -5
5 -5 3 0 5 2 5 5 0 3 -2 5 -5 5 -3 0 -5 -2 -5 -5z M3020 845 c0 -3 2 -5 5 -5
3 0 5 2 5 5 0 3 -2 5 -5 5 -3 0 -5 -2 -5 -5z M3110 845 c0 -3 2 -5 5 -5 3 0 5
2 5 5 0 3 -2 5 -5 5 -3 0 -5 -2 -5 -5z M3840 840 c0 -7 3 -10 7 -7 3 4 3 10 0
14 -4 3 -7 0 -7 -7z M2070 835 c0 -3 2 -5 5 -5 3 0 5 2 5 5 0 3 -2 5 -5 5 -3
0 -5 -2 -5 -5z M2125 822 c3 -8 5 -18 5 -23 0 -6 5 -7 11 -3 18 11 79 23 74
14 -3 -4 11 -8 30 -7 30 1 33 3 21 15 -19 19 -148 23 -141 4z M2864 829 c-3
-5 6 -9 20 -9 31 0 34 6 6 13 -11 3 -23 1 -26 -4z M3601 824 c0 -11 3 -14 6
-6 3 7 2 16 -1 19 -3 4 -6 -2 -5 -13z M3893 833 c4 -3 10 -3 14 0 3 4 0 7 -7
7 -7 0 -10 -3 -7 -7z M2810 820 c8 -5 22 -9 30 -9 10 0 8 3 -5 9 -27 12 -43
12 -25 0z M3670 820 c0 -7 3 -10 7 -7 3 4 3 10 0 14 -4 3 -7 0 -7 -7z M1024
808 c-4 -7 -3 -8 4 -4 12 7 16 16 8 16 -3 0 -8 -5 -12 -12z M913 803 c4 -3 10
-3 14 0 3 4 0 7 -7 7 -7 0 -10 -3 -7 -7z M2313 797 c5 -12 1 -17 -13 -17 -12
0 -20 -7 -20 -16 0 -13 7 -15 32 -10 43 9 45 13 18 38 -18 17 -22 18 -17 5z
M1360 795 c0 -3 2 -5 5 -5 3 0 5 2 5 5 0 3 -2 5 -5 5 -3 0 -5 -2 -5 -5z M1910
788 c0 -16 45 -29 98 -29 31 0 62 -5 68 -10 8 -7 14 -6 19 1 3 5 3 10 -1 10
-4 0 0 8 9 18 15 16 11 17 -89 17 -57 0 -104 -3 -104 -7z M2973 793 c9 -2 23
-2 30 0 6 3 -1 5 -18 5 -16 0 -22 -2 -12 -5z M3790 795 c0 -3 2 -5 5 -5 3 0 5
2 5 5 0 3 -2 5 -5 5 -3 0 -5 -2 -5 -5z M3825 790 c-3 -5 -1 -10 4 -10 6 0 11
5 11 10 0 6 -2 10 -4 10 -3 0 -8 -4 -11 -10z M980 785 c0 -3 2 -5 5 -5 3 0 5
2 5 5 0 3 -2 5 -5 5 -3 0 -5 -2 -5 -5z M2820 779 c-32 -7 -31 -8 13 -5 26 2
47 0 47 -5 0 -4 -21 -11 -47 -15 -60 -8 -99 -28 -114 -56 -11 -20 -9 -20 19 4
34 28 37 29 120 48 32 8 52 17 52 26 0 15 -32 17 -90 3z M3508 783 c39 -2 105
-2 145 0 39 1 7 3 -73 3 -80 0 -112 -2 -72 -3z M3760 785 c0 -3 2 -5 5 -5 3 0
5 2 5 5 0 3 -2 5 -5 5 -3 0 -5 -2 -5 -5z M791 764 c0 -11 3 -14 6 -6 3 7 2 16
-1 19 -3 4 -6 -2 -5 -13z M2382 730 c-15 -31 -37 -58 -59 -71 -25 -16 -31 -25
-23 -33 7 -7 16 -7 30 2 16 10 21 9 28 -5 9 -14 12 -14 35 3 32 23 34 34 7 41
-11 3 -20 14 -20 25 0 10 5 16 10 13 6 -3 10 -2 10 3 0 6 8 9 17 8 24 -1 70
-75 77 -121 l6 -38 -20 24 -21 24 13 -24 c36 -65 38 -67 38 -48 0 11 5 15 11
11 6 -3 8 -15 6 -26 -4 -14 -2 -18 9 -14 8 3 14 1 14 -4 0 -6 -11 -10 -25 -10
-14 0 -25 -4 -25 -10 0 -5 10 -9 21 -7 12 1 24 -4 26 -10 3 -8 -4 -13 -16 -13
-12 0 -21 -5 -21 -11 0 -6 7 -9 15 -5 8 3 15 1 15 -5 0 -6 7 -9 15 -5 8 3 15
1 15 -4 0 -6 4 -10 9 -10 26 0 -102 321 -137 343 -7 5 -10 12 -7 18 4 5 -2 9
-12 9 -12 0 -26 -18 -41 -50z m38 5 c0 -3 -2 -5 -5 -5 -3 0 -5 2 -5 5 0 3 2 5
5 5 3 0 5 -2 5 -5z m-40 -80 c0 -3 -2 -5 -5 -5 -3 0 -5 2 -5 5 0 3 2 5 5 5 3
0 5 -2 5 -5z M2600 765 c0 -19 -21 -56 -40 -71 -12 -10 -12 -14 -1 -28 12 -14
16 -11 38 21 14 21 21 39 16 40 -6 2 -8 15 -5 28 2 14 2 25 -2 25 -3 0 -6 -7
-6 -15z m-30 -80 c0 -3 -2 -5 -5 -5 -3 0 -5 2 -5 5 0 3 2 5 5 5 3 0 5 -2 5 -5z
M2980 770 c-36 -3 45 -4 180 -2 135 2 250 5 255 7 17 6 -367 2 -435 -5z M2125
760 c-3 -5 3 -10 14 -10 12 0 21 5 21 10 0 6 -6 10 -14 10 -8 0 -18 -4 -21
-10z M2480 754 c0 -8 5 -12 10 -9 6 4 8 11 5 16 -9 14 -15 11 -15 -7z M3742
761 c-11 -7 -11 -9 2 -14 10 -4 16 -1 16 8 0 17 -1 17 -18 6z M940 718 c-29
-54 -42 -98 -29 -98 5 0 9 5 9 11 0 6 10 24 21 41 12 16 22 40 22 54 0 13 3
21 8 18 5 -3 9 0 9 5 0 24 -19 9 -40 -31z M1111 744 c0 -11 3 -14 6 -6 3 7 2
16 -1 19 -3 4 -6 -2 -5 -13z M2721 746 c-10 -12 -8 -13 9 -9 25 7 37 23 17 23
-8 0 -20 -6 -26 -14z M3810 755 c0 -3 2 -5 5 -5 3 0 5 2 5 5 0 3 -2 5 -5 5 -3
0 -5 -2 -5 -5z M1483 743 c4 -3 10 -3 14 0 3 4 0 7 -7 7 -7 0 -10 -3 -7 -7z
M2658 726 c-10 -13 -18 -39 -20 -58 -1 -18 -5 -38 -10 -44 -17 -23 -13 -209 5
-235 9 -13 17 -21 17 -19 0 3 3 29 6 59 5 39 3 56 -7 62 -10 6 -11 9 -1 9 7 0
12 14 12 35 0 19 -4 35 -10 35 -5 0 -2 8 8 18 9 11 23 16 30 12 8 -4 37 -5 65
-2 44 4 49 3 44 -12 -5 -14 -3 -15 13 -6 26 14 87 13 93 -2 3 -10 7 -10 20 0
9 8 21 11 28 7 6 -4 15 -1 20 6 7 11 12 12 27 2 25 -15 42 1 42 36 -1 23 -2
24 -11 8 -8 -13 -14 -15 -29 -7 -13 7 -21 7 -25 0 -4 -6 -10 -8 -15 -5 -6 3
-38 7 -72 9 -90 5 -143 17 -126 27 9 6 9 9 1 9 -6 0 -14 -4 -17 -9 -3 -5 -21
-9 -40 -9 -19 0 -39 -3 -45 -7 -17 -10 -13 24 4 41 8 9 15 26 15 40 0 29 -1
29 -22 0z m362 -131 c0 -3 -2 -5 -5 -5 -3 0 -5 2 -5 5 0 3 2 5 5 5 3 0 5 -2 5
-5z M3190 745 c0 -3 2 -5 5 -5 3 0 5 2 5 5 0 3 -2 5 -5 5 -3 0 -5 -2 -5 -5z
M3590 740 c0 -7 3 -10 7 -7 3 4 3 10 0 14 -4 3 -7 0 -7 -7z M3670 745 c0 -3 2
-5 5 -5 3 0 5 2 5 5 0 3 -2 5 -5 5 -3 0 -5 -2 -5 -5z M774 729 c-3 -6 -1 -16
4 -21 8 -8 11 -5 9 11 -1 24 -3 25 -13 10z M1090 735 c0 -3 2 -5 5 -5 3 0 5 2
5 5 0 3 -2 5 -5 5 -3 0 -5 -2 -5 -5z M1355 730 c3 -5 8 -10 11 -10 3 0 2 5 -1
10 -3 6 -8 10 -11 10 -3 0 -2 -4 1 -10z M1523 733 c4 -3 10 -3 14 0 3 4 0 7
-7 7 -7 0 -10 -3 -7 -7z M2158 733 c-10 -2 -18 -9 -18 -15 0 -9 -9 -8 -75 8
-11 3 -2 -6 20 -20 48 -31 65 -32 72 -6 6 24 23 16 23 -11 0 -11 4 -17 10 -14
5 3 29 8 52 11 74 9 80 33 10 36 -23 1 -42 5 -42 10 0 8 -22 9 -52 1z M980
725 c0 -3 2 -5 5 -5 3 0 5 2 5 5 0 3 -2 5 -5 5 -3 0 -5 -2 -5 -5z M1330 725
c0 -3 2 -5 5 -5 3 0 5 2 5 5 0 3 -2 5 -5 5 -3 0 -5 -2 -5 -5z M1447 723 c-4
-3 -7 -13 -7 -21 0 -18 13 -7 16 13 2 17 1 18 -9 8z M1490 725 c0 -3 2 -5 5
-5 3 0 5 2 5 5 0 3 -2 5 -5 5 -3 0 -5 -2 -5 -5z M2000 723 c0 -4 11 -23 24
-42 37 -54 44 -91 18 -98 -20 -5 -20 -6 -5 -30 13 -19 18 -56 21 -145 3 -72 8
-115 13 -107 7 11 9 11 9 1 0 -7 5 -10 10 -7 6 4 10 -6 9 -22 0 -25 -1 -26
-10 -8 -8 17 -9 17 -4 -5 3 -14 8 -78 12 -143 5 -100 8 -117 22 -115 18 3 30
88 13 88 -5 0 -12 11 -14 25 -4 19 -1 25 12 25 18 0 30 -42 30 -107 0 -30 3
-33 31 -33 l32 0 -5 105 c-3 58 -1 108 4 111 5 3 23 -4 42 -15 18 -12 41 -21
50 -21 21 0 66 -48 114 -122 27 -43 43 -58 60 -58 26 0 27 35 2 66 -12 13 -12
18 -2 21 6 3 12 9 12 14 0 4 -7 6 -15 3 -9 -4 -15 0 -15 7 0 11 -3 11 -10 -1
-6 -9 -10 -10 -10 -3 0 6 -3 20 -6 30 -6 15 -4 16 7 6 7 -7 19 -13 26 -13 15
0 18 26 3 35 -6 4 -7 -1 -3 -12 6 -15 4 -16 -9 -5 -8 7 -24 9 -33 5 -13 -4
-16 -3 -11 5 4 7 1 12 -8 12 -9 0 -16 7 -16 15 0 8 -4 15 -9 15 -5 0 -11 7
-14 14 -4 10 -1 13 8 10 7 -3 16 -12 19 -20 5 -14 27 -20 25 -7 -3 22 15 54
28 49 8 -3 11 -2 8 3 -7 13 -42 10 -41 -4 1 -11 -6 -15 -30 -15 -8 0 -13 4
-10 9 3 4 -6 6 -21 3 -18 -3 -24 -1 -19 7 4 6 12 8 18 5 8 -5 9 -1 5 10 -4 10
-7 21 -7 24 0 4 -5 0 -10 -8 -5 -8 -10 -10 -10 -4 0 5 6 19 14 30 14 18 14 18
13 0 -1 -11 5 -20 16 -21 9 -2 17 2 17 9 0 23 57 56 89 52 17 -2 28 1 25 6 -4
6 17 8 50 7 62 -3 78 4 48 20 -21 11 -54 10 -167 -8 -38 -6 -81 -12 -95 -14
-14 -2 -32 -7 -40 -10 -8 -4 -40 -13 -70 -21 -107 -28 -107 -27 -109 -92 -1
-37 3 -60 11 -65 7 -4 9 -11 5 -15 -12 -13 -35 19 -42 59 -5 26 -4 37 5 37 9
0 11 34 8 140 -3 117 -1 141 12 145 10 4 11 8 3 13 -6 4 -20 30 -30 57 -21 53
-103 148 -103 118z m87 -205 c-3 -8 -6 -5 -6 6 -1 11 2 17 5 13 3 -3 4 -12 1
-19z m0 -60 c-3 -7 -5 -2 -5 12 0 14 2 19 5 13 2 -7 2 -19 0 -25z m-6 -55
c-12 -20 -14 -14 -5 12 4 9 9 14 11 11 3 -2 0 -13 -6 -23z m6 -40 c-4 -3 -7 0
-7 7 0 7 3 10 7 7 3 -4 3 -10 0 -14z m328 -23 c3 -5 1 -10 -4 -10 -6 0 -11 5
-11 10 0 6 2 10 4 10 3 0 8 -4 11 -10z m-330 -10 c3 -5 1 -10 -4 -10 -6 0 -11
5 -11 10 0 6 2 10 4 10 3 0 8 -4 11 -10z m235 -25 c0 -3 -2 -5 -5 -5 -3 0 -5
2 -5 5 0 3 2 5 5 5 3 0 5 -2 5 -5z m70 1 c0 -3 -5 -8 -12 -12 -7 -4 -8 -3 -4
4 7 12 16 16 16 8z m-173 -23 c-4 -3 -10 -3 -14 0 -3 4 0 7 7 7 7 0 10 -3 7
-7z m71 -9 c42 -21 40 -23 -7 -11 -22 6 -38 14 -35 19 7 10 6 11 42 -8z m-121
-6 c-2 -7 0 -22 5 -33 9 -19 8 -19 -6 -2 -8 11 -12 25 -9 33 6 17 16 19 10 2z
m33 -23 c0 -3 -2 -5 -5 -5 -3 0 -5 2 -5 5 0 3 2 5 5 5 3 0 5 -2 5 -5z m120
-10 c0 -3 -2 -5 -5 -5 -3 0 -5 2 -5 5 0 3 2 5 5 5 3 0 5 -2 5 -5z m37 -12 c-4
-3 -10 -3 -14 0 -3 4 0 7 7 7 7 0 10 -3 7 -7z m113 -138 c0 -3 -2 -5 -5 -5 -3
0 -5 2 -5 5 0 3 2 5 5 5 3 0 5 -2 5 -5z M2840 719 c0 -6 13 -8 31 -5 45 7 48
16 6 16 -20 0 -37 -5 -37 -11z M2968 723 c7 -3 16 -2 19 1 4 3 -2 6 -13 5 -11
0 -14 -3 -6 -6z M3180 720 c0 -5 5 -10 10 -10 6 0 10 5 10 10 0 6 -4 10 -10
10 -5 0 -10 -4 -10 -10z M3640 720 c0 -5 5 -10 10 -10 6 0 10 5 10 10 0 6 -4
10 -10 10 -5 0 -10 -4 -10 -10z M1840 699 c0 -6 -8 -8 -18 -5 -23 8 -43 -10
-113 -99 -55 -71 -66 -88 -94 -137 -14 -25 -14 -28 0 -28 8 0 15 5 15 10 0 6
7 10 15 10 8 0 15 8 15 17 0 9 3 13 7 10 3 -4 17 11 30 33 13 22 30 40 37 40
8 0 17 7 20 16 4 10 2 13 -7 9 -6 -4 0 5 16 19 15 14 27 30 27 36 0 16 22 36
48 44 22 7 31 36 12 36 -5 0 -10 -5 -10 -11z m-160 -204 c0 -3 -2 -5 -5 -5 -3
0 -5 2 -5 5 0 3 2 5 5 5 3 0 5 -2 5 -5z M3440 700 c0 -7 3 -10 7 -7 3 4 3 10
0 14 -4 3 -7 0 -7 -7z M1270 695 c0 -3 2 -5 5 -5 3 0 5 2 5 5 0 3 -2 5 -5 5
-3 0 -5 -2 -5 -5z M2323 693 c4 -3 10 -3 14 0 3 4 0 7 -7 7 -7 0 -10 -3 -7 -7z
M3500 695 c0 -3 2 -5 5 -5 3 0 5 2 5 5 0 3 -2 5 -5 5 -3 0 -5 -2 -5 -5z M760
674 c0 -8 5 -12 10 -9 6 3 10 10 10 16 0 5 -4 9 -10 9 -5 0 -10 -7 -10 -16z
M870 685 c0 -3 2 -5 5 -5 3 0 5 2 5 5 0 3 -2 5 -5 5 -3 0 -5 -2 -5 -5z M2740
685 c0 -3 2 -5 5 -5 3 0 5 2 5 5 0 3 -2 5 -5 5 -3 0 -5 -2 -5 -5z M3830 685
c0 -3 2 -5 5 -5 3 0 5 2 5 5 0 3 -2 5 -5 5 -3 0 -5 -2 -5 -5z M3670 666 c0 -8
4 -17 9 -20 5 -4 7 3 4 14 -6 23 -13 26 -13 6z M1930 660 c0 -7 3 -10 7 -7 3
4 3 10 0 14 -4 3 -7 0 -7 -7z M2014 658 c-4 -7 -3 -8 4 -4 12 7 16 16 8 16 -3
0 -8 -5 -12 -12z M2300 665 c0 -3 2 -5 5 -5 3 0 5 2 5 5 0 3 -2 5 -5 5 -3 0
-5 -2 -5 -5z M3018 663 c7 -3 16 -2 19 1 4 3 -2 6 -13 5 -11 0 -14 -3 -6 -6z
M1263 653 c4 -3 10 -3 14 0 3 4 0 7 -7 7 -7 0 -10 -3 -7 -7z M2430 655 c0 -3
2 -5 5 -5 3 0 5 2 5 5 0 3 -2 5 -5 5 -3 0 -5 -2 -5 -5z M743 610 c0 -25 2 -35
4 -22 2 12 2 32 0 45 -2 12 -4 2 -4 -23z M1320 645 c0 -3 2 -5 5 -5 3 0 5 2 5
5 0 3 -2 5 -5 5 -3 0 -5 -2 -5 -5z M2130 629 c0 -5 9 -9 20 -9 11 0 20 2 20 4
0 2 -9 6 -20 9 -11 3 -20 1 -20 -4z M2452 628 c6 -18 28 -21 28 -4 0 9 -7 16
-16 16 -9 0 -14 -5 -12 -12z M3105 630 c3 -5 8 -10 11 -10 2 0 4 5 4 10 0 6
-5 10 -11 10 -5 0 -7 -4 -4 -10z M1210 625 c0 -3 2 -5 5 -5 3 0 5 2 5 5 0 3
-2 5 -5 5 -3 0 -5 -2 -5 -5z M1238 623 c6 -2 18 -2 25 0 6 3 1 5 -13 5 -14 0
-19 -2 -12 -5z M2555 620 c-8 -13 3 -50 16 -50 12 0 12 47 0 55 -5 3 -12 1
-16 -5z M1184 608 c-4 -7 -3 -8 4 -4 12 7 16 16 8 16 -3 0 -8 -5 -12 -12z
M2206 613 c-11 -3 -26 -12 -34 -20 -13 -12 -11 -14 9 -11 13 2 30 7 36 11 7 4
21 4 30 -2 18 -9 25 -11 43 -11 6 0 10 -9 10 -21 0 -14 -5 -19 -15 -16 -8 4
-17 2 -20 -4 -10 -15 19 -21 49 -9 21 7 34 6 57 -5 30 -16 76 -7 49 10 -7 4
-16 2 -20 -5 -5 -8 -10 -3 -14 14 -4 18 -13 26 -28 26 -11 0 -36 11 -54 25
-31 24 -56 28 -98 18z M3060 609 c0 -5 5 -7 10 -4 6 3 10 8 10 11 0 2 -4 4
-10 4 -5 0 -10 -5 -10 -11z M3330 615 c0 -3 2 -5 5 -5 3 0 5 2 5 5 0 3 -2 5
-5 5 -3 0 -5 -2 -5 -5z M641 594 c0 -11 3 -14 6 -6 3 7 2 16 -1 19 -3 4 -6 -2
-5 -13z M1590 600 c0 -7 3 -10 7 -7 3 4 3 10 0 14 -4 3 -7 0 -7 -7z M3520 600
c0 -7 3 -10 7 -7 3 4 3 10 0 14 -4 3 -7 0 -7 -7z M1280 595 c0 -3 2 -5 5 -5 3
0 5 2 5 5 0 3 -2 5 -5 5 -3 0 -5 -2 -5 -5z M1840 595 c0 -3 2 -5 5 -5 3 0 5 2
5 5 0 3 -2 5 -5 5 -3 0 -5 -2 -5 -5z M3703 593 c4 -3 10 -3 14 0 3 4 0 7 -7 7
-7 0 -10 -3 -7 -7z M3430 585 c0 -3 2 -5 5 -5 3 0 5 2 5 5 0 3 -2 5 -5 5 -3 0
-5 -2 -5 -5z M3590 580 c0 -7 3 -10 7 -7 3 4 3 10 0 14 -4 3 -7 0 -7 -7z M622
542 c-2 -28 0 -33 8 -22 12 18 13 47 2 54 -4 2 -9 -12 -10 -32z M870 575 c0
-3 2 -5 5 -5 3 0 5 2 5 5 0 3 -2 5 -5 5 -3 0 -5 -2 -5 -5z M1830 575 c0 -3 2
-5 5 -5 3 0 5 2 5 5 0 3 -2 5 -5 5 -3 0 -5 -2 -5 -5z M1910 575 c0 -3 2 -5 5
-5 3 0 5 2 5 5 0 3 -2 5 -5 5 -3 0 -5 -2 -5 -5z M2236 564 c-8 -21 -4 -25 14
-14 11 7 12 12 4 20 -8 8 -13 7 -18 -6z M1040 565 c0 -3 2 -5 5 -5 3 0 5 2 5
5 0 3 -2 5 -5 5 -3 0 -5 -2 -5 -5z M1158 563 c7 -3 16 -2 19 1 4 3 -2 6 -13 5
-11 0 -14 -3 -6 -6z M1208 563 c7 -3 16 -2 19 1 4 3 -2 6 -13 5 -11 0 -14 -3
-6 -6z M3320 565 c0 -3 2 -5 5 -5 3 0 5 2 5 5 0 3 -2 5 -5 5 -3 0 -5 -2 -5 -5z
M3680 545 c0 -8 2 -15 4 -15 2 0 6 7 10 15 3 8 1 15 -4 15 -6 0 -10 -7 -10
-15z M710 535 c0 -8 2 -15 4 -15 2 0 6 7 10 15 3 8 1 15 -4 15 -6 0 -10 -7
-10 -15z M1220 540 c0 -5 4 -10 9 -10 6 0 13 5 16 10 3 6 -1 10 -9 10 -9 0
-16 -4 -16 -10z M3490 545 c0 -3 2 -5 5 -5 3 0 5 2 5 5 0 3 -2 5 -5 5 -3 0 -5
-2 -5 -5z M3843 543 c4 -3 10 -3 14 0 3 4 0 7 -7 7 -7 0 -10 -3 -7 -7z M2690
518 c0 -13 5 -30 10 -38 7 -11 10 -7 10 17 0 17 -4 35 -10 38 -6 3 -10 -4 -10
-17z M3510 535 c0 -3 2 -5 5 -5 3 0 5 2 5 5 0 3 -2 5 -5 5 -3 0 -5 -2 -5 -5z
M1096 518 c3 -5 10 -6 15 -3 13 9 11 12 -6 12 -8 0 -12 -4 -9 -9z M1590 520
c0 -7 3 -10 7 -7 3 4 3 10 0 14 -4 3 -7 0 -7 -7z M2000 525 c0 -3 2 -5 5 -5 3
0 5 2 5 5 0 3 -2 5 -5 5 -3 0 -5 -2 -5 -5z M2760 520 c0 -6 5 -10 11 -10 5 0
8 -4 5 -9 -6 -9 46 -21 97 -23 15 0 27 -4 27 -7 0 -8 86 -8 94 0 3 3 51 4 106
1 69 -3 100 -1 100 6 0 8 8 9 23 4 30 -11 57 -4 57 15 0 12 -8 13 -42 7 -24
-4 -47 -6 -53 -6 -81 10 -220 10 -227 -1 -6 -9 -10 -9 -17 2 -5 8 -19 12 -35
9 -17 -4 -26 -1 -26 8 0 12 -41 11 -61 -2 -4 -2 -19 0 -33 6 -17 6 -26 6 -26
0z M1130 515 c0 -3 2 -5 5 -5 3 0 5 2 5 5 0 3 -2 5 -5 5 -3 0 -5 -2 -5 -5z
M1180 515 c0 -3 2 -5 5 -5 3 0 5 2 5 5 0 3 -2 5 -5 5 -3 0 -5 -2 -5 -5z M2190
510 c19 -13 30 -13 30 0 0 6 -10 10 -22 10 -19 0 -20 -2 -8 -10z M2671 504 c0
-11 3 -14 6 -6 3 7 2 16 -1 19 -3 4 -6 -2 -5 -13z M2720 510 c0 -5 4 -10 9
-10 6 0 13 5 16 10 3 6 -1 10 -9 10 -9 0 -16 -4 -16 -10z M3713 513 c4 -3 10
-3 14 0 3 4 0 7 -7 7 -7 0 -10 -3 -7 -7z M2000 500 c0 -7 3 -10 7 -7 3 4 3 10
0 14 -4 3 -7 0 -7 -7z M2020 505 c0 -3 2 -5 5 -5 3 0 5 2 5 5 0 3 -2 5 -5 5
-3 0 -5 -2 -5 -5z M2140 500 c0 -5 5 -10 10 -10 6 0 10 5 10 10 0 6 -4 10 -10
10 -5 0 -10 -4 -10 -10z M2270 501 c1 -9 26 -41 34 -41 3 0 6 7 6 15 0 8 5 15
10 15 25 0 6 15 -20 16 -17 1 -30 -2 -30 -5z M2462 501 c4 -13 18 -16 19 -4 0
4 -5 9 -11 12 -7 2 -11 -2 -8 -8z M3307 503 c-4 -3 -7 -11 -7 -17 0 -6 5 -5
12 2 6 6 9 14 7 17 -3 3 -9 2 -12 -2z M3680 500 c-13 -8 -12 -10 3 -10 9 0 17
5 17 10 0 12 -1 12 -20 0z M750 495 c0 -3 2 -5 5 -5 3 0 5 2 5 5 0 3 -2 5 -5
5 -3 0 -5 -2 -5 -5z M950 495 c0 -3 2 -5 5 -5 3 0 5 2 5 5 0 3 -2 5 -5 5 -3 0
-5 -2 -5 -5z M1580 495 c0 -3 2 -5 5 -5 3 0 5 2 5 5 0 3 -2 5 -5 5 -3 0 -5 -2
-5 -5z M3750 495 c0 -3 2 -5 5 -5 3 0 5 2 5 5 0 3 -2 5 -5 5 -3 0 -5 -2 -5 -5z
M1053 483 c9 -2 23 -2 30 0 6 3 -1 5 -18 5 -16 0 -22 -2 -12 -5z M2043 450 c0
-25 2 -35 4 -22 2 12 2 32 0 45 -2 12 -4 2 -4 -23z M2423 483 c4 -3 10 -3 14
0 3 4 0 7 -7 7 -7 0 -10 -3 -7 -7z M3385 480 c3 -5 10 -10 16 -10 5 0 9 5 9
10 0 6 -7 10 -16 10 -8 0 -12 -4 -9 -10z M3420 485 c0 -3 2 -5 5 -5 3 0 5 2 5
5 0 3 -2 5 -5 5 -3 0 -5 -2 -5 -5z M3633 483 c4 -3 10 -3 14 0 3 4 0 7 -7 7
-7 0 -10 -3 -7 -7z M1790 475 c0 -3 2 -5 5 -5 3 0 5 2 5 5 0 3 -2 5 -5 5 -3 0
-5 -2 -5 -5z M3580 470 c0 -5 5 -10 10 -10 6 0 10 5 10 10 0 6 -4 10 -10 10
-5 0 -10 -4 -10 -10z M801 454 c0 -11 3 -14 6 -6 3 7 2 16 -1 19 -3 4 -6 -2
-5 -13z M2370 465 c0 -3 2 -5 5 -5 3 0 5 2 5 5 0 3 -2 5 -5 5 -3 0 -5 -2 -5
-5z M2400 465 c0 -3 2 -5 5 -5 3 0 5 2 5 5 0 3 -2 5 -5 5 -3 0 -5 -2 -5 -5z
M2445 460 c3 -5 8 -10 11 -10 2 0 4 5 4 10 0 6 -5 10 -11 10 -5 0 -7 -4 -4
-10z M1445 440 c-4 -12 -5 -24 -2 -27 3 -2 8 5 12 17 4 12 5 24 2 27 -3 2 -8
-5 -12 -17z M2345 450 c3 -5 8 -10 11 -10 3 0 2 5 -1 10 -3 6 -8 10 -11 10 -3
0 -2 -4 1 -10z M2700 455 c0 -3 2 -5 5 -5 3 0 5 2 5 5 0 3 -2 5 -5 5 -3 0 -5
-2 -5 -5z M1090 445 c0 -3 2 -5 5 -5 3 0 5 2 5 5 0 3 -2 5 -5 5 -3 0 -5 -2 -5
-5z M2205 429 c-6 -17 -9 -19 -17 -8 -8 11 -9 11 -6 1 2 -8 19 -20 38 -28 35
-14 35 -14 13 5 -18 15 -20 20 -8 25 19 7 20 26 1 26 -8 0 -18 -10 -21 -21z
M950 435 c0 -3 2 -5 5 -5 3 0 5 2 5 5 0 3 -2 5 -5 5 -3 0 -5 -2 -5 -5z M2420
435 c0 -3 2 -5 5 -5 3 0 5 2 5 5 0 3 -2 5 -5 5 -3 0 -5 -2 -5 -5z M2470 432
c0 -6 -8 -13 -17 -15 -16 -4 -16 -5 -1 -6 18 -1 34 16 24 26 -3 4 -6 1 -6 -5z
M2720 435 c0 -3 2 -5 5 -5 3 0 5 2 5 5 0 3 -2 5 -5 5 -3 0 -5 -2 -5 -5z M2790
435 c0 -3 2 -5 5 -5 3 0 5 2 5 5 0 3 -2 5 -5 5 -3 0 -5 -2 -5 -5z M1032 413
c-12 -12 -9 -13 15 -7 37 9 47 19 20 20 -12 1 -28 -5 -35 -13z M3830 420 c0
-7 3 -10 7 -7 3 4 3 10 0 14 -4 3 -7 0 -7 -7z M760 411 c0 -5 9 -7 20 -4 11 3
20 7 20 9 0 2 -9 4 -20 4 -11 0 -20 -4 -20 -9z M1793 393 c-10 -15 -25 -36
-33 -46 -8 -9 -21 -36 -27 -60 -7 -23 -11 -30 -9 -15 5 39 -10 25 -18 -17 -4
-19 -11 -35 -16 -35 -6 0 -10 -9 -10 -19 0 -11 -5 -23 -11 -27 -6 -3 -9 -15
-6 -25 3 -11 2 -17 -3 -14 -10 6 -20 -19 -20 -48 0 -20 0 -21 18 -1 9 10 23
30 30 44 25 47 47 85 65 110 9 13 17 35 17 47 0 25 15 31 24 11 3 -7 4 1 3 17
-2 24 2 30 16 29 16 -2 17 0 3 15 -11 12 -12 21 -4 34 17 31 1 31 -19 0z
M1940 415 c0 -3 2 -5 5 -5 3 0 5 2 5 5 0 3 -2 5 -5 5 -3 0 -5 -2 -5 -5z M1960
415 c0 -3 2 -5 5 -5 3 0 5 2 5 5 0 3 -2 5 -5 5 -3 0 -5 -2 -5 -5z M2306 404
c-9 -25 -6 -30 7 -13 7 9 19 18 27 22 10 4 9 6 -6 6 -12 1 -25 -6 -28 -15z
M2400 415 c0 -3 2 -5 5 -5 3 0 5 2 5 5 0 3 -2 5 -5 5 -3 0 -5 -2 -5 -5z M2720
415 c0 -3 2 -5 5 -5 3 0 5 2 5 5 0 3 -2 5 -5 5 -3 0 -5 -2 -5 -5z M2761 411
c-16 -10 -6 -31 15 -31 8 0 14 8 14 18 0 14 2 15 10 2 5 -8 12 -11 17 -7 17
18 -32 33 -56 18z M927 403 c-3 -5 5 -8 18 -8 13 0 21 3 18 8 -2 4 -10 7 -18
7 -8 0 -16 -3 -18 -7z M1100 405 c0 -3 2 -5 5 -5 3 0 5 2 5 5 0 3 -2 5 -5 5
-3 0 -5 -2 -5 -5z M2000 400 c0 -7 3 -10 7 -7 3 4 3 10 0 14 -4 3 -7 0 -7 -7z
M2263 403 c4 -3 10 -3 14 0 3 4 0 7 -7 7 -7 0 -10 -3 -7 -7z M2692 399 c2 -7
10 -15 17 -17 8 -3 12 1 9 9 -2 7 -10 15 -17 17 -8 3 -12 -1 -9 -9z M2888 403
c6 -2 18 -2 25 0 6 3 1 5 -13 5 -14 0 -19 -2 -12 -5z M3200 405 c0 -3 2 -5 5
-5 3 0 5 2 5 5 0 3 -2 5 -5 5 -3 0 -5 -2 -5 -5z M865 390 c-19 -8 -19 -9 3 -9
12 -1 22 4 22 9 0 6 -1 10 -2 9 -2 0 -12 -4 -23 -9z M1145 373 c-19 -13 -18
-14 10 -7 37 8 39 10 23 17 -8 2 -23 -2 -33 -10z M1998 353 c-6 -16 -11 -31
-10 -35 1 -5 -7 -8 -19 -8 -11 0 -17 -4 -14 -10 14 -22 34 -8 48 35 17 49 13
62 -5 18z M2030 375 c0 -3 2 -5 5 -5 3 0 5 2 5 5 0 3 -2 5 -5 5 -3 0 -5 -2 -5
-5z M2150 370 c0 -7 3 -10 7 -7 3 4 3 10 0 14 -4 3 -7 0 -7 -7z M3760 375 c0
-3 2 -5 5 -5 3 0 5 2 5 5 0 3 -2 5 -5 5 -3 0 -5 -2 -5 -5z M2690 349 c13 -23
33 -25 28 -2 -2 9 -11 17 -20 19 -15 2 -16 -1 -8 -17z M2800 365 c0 -3 2 -5 5
-5 3 0 5 2 5 5 0 3 -2 5 -5 5 -3 0 -5 -2 -5 -5z M1420 345 c0 -3 2 -5 5 -5 3
0 5 2 5 5 0 3 -2 5 -5 5 -3 0 -5 -2 -5 -5z M2020 345 c0 -3 2 -5 5 -5 3 0 5 2
5 5 0 3 -2 5 -5 5 -3 0 -5 -2 -5 -5z M2800 345 c0 -3 2 -5 5 -5 3 0 5 2 5 5 0
3 -2 5 -5 5 -3 0 -5 -2 -5 -5z M1440 335 c0 -3 2 -5 5 -5 3 0 5 2 5 5 0 3 -2
5 -5 5 -3 0 -5 -2 -5 -5z M2560 331 c0 -5 6 -12 13 -14 17 -8 -12 -27 -30 -20
-17 7 -17 -5 2 -23 8 -9 15 -11 15 -5 0 6 9 11 19 11 11 0 23 5 26 10 4 6 15
8 26 5 15 -5 17 -3 13 10 -5 11 -15 15 -30 12 -14 -2 -25 2 -28 9 -6 16 -26
19 -26 5z M2620 335 c0 -3 2 -5 5 -5 3 0 5 2 5 5 0 3 -2 5 -5 5 -3 0 -5 -2 -5
-5z M3300 335 c0 -3 2 -5 5 -5 3 0 5 2 5 5 0 3 -2 5 -5 5 -3 0 -5 -2 -5 -5z
M3760 335 c0 -3 2 -5 5 -5 3 0 5 2 5 5 0 3 -2 5 -5 5 -3 0 -5 -2 -5 -5z M1810
325 c0 -3 2 -5 5 -5 3 0 5 2 5 5 0 3 -2 5 -5 5 -3 0 -5 -2 -5 -5z M2040 325
c0 -3 2 -5 5 -5 3 0 5 2 5 5 0 3 -2 5 -5 5 -3 0 -5 -2 -5 -5z M2445 321 c-3
-5 0 -13 6 -17 7 -4 9 -3 5 4 -3 5 0 13 6 15 9 4 10 6 1 6 -6 1 -14 -3 -18 -8z
M2530 320 c0 -7 3 -10 7 -7 3 4 3 10 0 14 -4 3 -7 0 -7 -7z M2679 315 c-3 -38
3 -58 22 -78 10 -12 19 -27 19 -34 0 -7 3 -13 8 -13 9 0 33 52 27 58 -3 3 -5
0 -5 -6 0 -27 -28 -9 -34 21 -3 19 -13 42 -21 53 -14 19 -14 19 -16 -1z m11
-20 c0 -3 -2 -5 -5 -5 -3 0 -5 2 -5 5 0 3 2 5 5 5 3 0 5 -2 5 -5z M2740 320
c0 -7 3 -10 7 -7 3 4 3 10 0 14 -4 3 -7 0 -7 -7z M2800 325 c0 -3 2 -5 5 -5 3
0 5 2 5 5 0 3 -2 5 -5 5 -3 0 -5 -2 -5 -5z M3505 320 c3 -5 8 -10 11 -10 2 0
4 5 4 10 0 6 -5 10 -11 10 -5 0 -7 -4 -4 -10z M3713 313 c4 -3 10 -3 14 0 3 4
0 7 -7 7 -7 0 -10 -3 -7 -7z M2010 305 c0 -3 2 -5 5 -5 3 0 5 2 5 5 0 3 -2 5
-5 5 -3 0 -5 -2 -5 -5z M1840 280 c0 -5 -22 -40 -50 -78 -27 -38 -50 -74 -50
-80 0 -7 -4 -12 -9 -12 -5 0 -13 -9 -16 -20 -3 -11 -12 -26 -19 -33 -7 -7 -17
-23 -20 -35 -6 -19 -4 -22 17 -22 22 0 42 27 38 53 -1 4 6 7 15 7 9 0 14 5 12
12 -2 6 6 22 19 36 12 13 28 37 35 53 7 16 16 29 19 29 4 0 9 10 13 23 3 12 5
22 5 22 0 0 4 12 10 28 9 22 8 27 -4 27 -8 0 -15 -4 -15 -10z M2000 280 c0 -7
3 -10 7 -7 3 4 3 10 0 14 -4 3 -7 0 -7 -7z M2740 285 c0 -3 2 -5 5 -5 3 0 5 2
5 5 0 3 -2 5 -5 5 -3 0 -5 -2 -5 -5z M2870 280 c0 -7 3 -10 7 -7 3 4 3 10 0
14 -4 3 -7 0 -7 -7z M2760 275 c0 -3 2 -5 5 -5 3 0 5 2 5 5 0 3 -2 5 -5 5 -3
0 -5 -2 -5 -5z M1965 259 c-18 -7 -18 -8 -2 -8 12 -1 16 -6 11 -13 -5 -10 -4
-10 6 -1 18 17 8 32 -15 22z M2480 260 c0 -6 7 -10 15 -10 8 0 15 2 15 4 0 2
-7 6 -15 10 -8 3 -15 1 -15 -4z M2530 256 c0 -8 -8 -17 -17 -19 -14 -4 -12 -5
5 -6 16 -1 22 5 22 19 0 11 -2 20 -5 20 -3 0 -5 -6 -5 -14z M2595 260 c-16 -7
-14 -9 12 -7 17 0 29 5 27 9 -6 10 -13 9 -39 -2z M2022 216 c13 -19 25 -33 27
-31 2 3 -1 11 -8 18 -6 8 -9 22 -5 31 4 12 0 16 -15 16 l-21 0 22 -34z M2730
245 c0 -3 2 -5 5 -5 3 0 5 2 5 5 0 3 -2 5 -5 5 -3 0 -5 -2 -5 -5z M3250 245
c0 -3 2 -5 5 -5 3 0 5 2 5 5 0 3 -2 5 -5 5 -3 0 -5 -2 -5 -5z M3420 240 c0 -5
5 -10 10 -10 6 0 10 5 10 10 0 6 -4 10 -10 10 -5 0 -10 -4 -10 -10z M3603 243
c4 -3 10 -3 14 0 3 4 0 7 -7 7 -7 0 -10 -3 -7 -7z M3670 245 c0 -3 2 -5 5 -5
3 0 5 2 5 5 0 3 -2 5 -5 5 -3 0 -5 -2 -5 -5z M2045 229 c-6 -9 20 -30 28 -22
12 12 7 30 -8 30 -9 0 -18 -4 -20 -8z m25 -14 c0 -3 -2 -5 -5 -5 -3 0 -5 2 -5
5 0 3 2 5 5 5 3 0 5 -2 5 -5z M2598 233 c7 -3 16 -2 19 1 4 3 -2 6 -13 5 -11
0 -14 -3 -6 -6z M3200 235 c0 -3 2 -5 5 -5 3 0 5 2 5 5 0 3 -2 5 -5 5 -3 0 -5
-2 -5 -5z M1904 212 c-6 -4 -19 -29 -29 -55 -10 -27 -24 -51 -30 -53 -7 -3
-10 -16 -7 -30 2 -14 0 -24 -7 -24 -6 0 -11 -5 -11 -11 0 -7 -8 -18 -17 -25
-17 -12 -16 -13 4 -14 28 0 63 28 56 46 -3 8 2 17 11 20 9 3 16 11 15 18 -1 6
0 18 4 26 8 22 26 104 24 107 -2 1 -7 -1 -13 -5z M2480 210 c0 -7 3 -10 7 -7
3 4 3 10 0 14 -4 3 -7 0 -7 -7z M2820 215 c0 -3 2 -5 5 -5 3 0 5 2 5 5 0 3 -2
5 -5 5 -3 0 -5 -2 -5 -5z M2590 205 c0 -3 2 -5 5 -5 3 0 5 2 5 5 0 3 -2 5 -5
5 -3 0 -5 -2 -5 -5z M2750 185 c0 -20 5 -25 25 -25 l25 0 -22 25 c-12 14 -23
25 -25 25 -2 0 -3 -11 -3 -25z M2840 190 c0 -11 7 -20 15 -20 13 0 14 4 5 20
-6 11 -13 20 -15 20 -3 0 -5 -9 -5 -20z M2010 195 c0 -3 2 -5 5 -5 3 0 5 2 5
5 0 3 -2 5 -5 5 -3 0 -5 -2 -5 -5z M2656 185 c5 -12 52 -30 59 -23 2 2 -12 11
-31 20 -25 13 -32 14 -28 3z M2060 180 c0 -5 5 -10 11 -10 5 0 7 5 4 10 -3 6
-8 10 -11 10 -2 0 -4 -4 -4 -10z M2514 166 c23 -18 36 -20 36 -6 0 6 -4 10 -9
10 -5 0 -18 3 -28 6 -16 5 -16 4 1 -10z M2593 173 c4 -3 10 -3 14 0 3 4 0 7
-7 7 -7 0 -10 -3 -7 -7z M3220 175 c0 -3 2 -5 5 -5 3 0 5 2 5 5 0 3 -2 5 -5 5
-3 0 -5 -2 -5 -5z M1990 151 c5 -11 10 -29 10 -40 0 -12 5 -21 10 -21 6 0 8
12 4 28 -10 45 -13 52 -24 52 -7 0 -8 -6 0 -19z M2563 163 c4 -3 10 -3 14 0 3
4 0 7 -7 7 -7 0 -10 -3 -7 -7z M3140 165 c0 -3 2 -5 5 -5 3 0 5 2 5 5 0 3 -2
5 -5 5 -3 0 -5 -2 -5 -5z M2080 150 c0 -7 3 -10 7 -7 3 4 3 10 0 14 -4 3 -7 0
-7 -7z M2625 150 c3 -5 8 -10 11 -10 2 0 4 5 4 10 0 6 -5 10 -11 10 -5 0 -7
-4 -4 -10z M2778 143 c7 -3 16 -2 19 1 4 3 -2 6 -13 5 -11 0 -14 -3 -6 -6z
M2061 124 c0 -11 3 -14 6 -6 3 7 2 16 -1 19 -3 4 -6 -2 -5 -13z M2524 118 c-4
-7 -3 -8 4 -4 7 4 12 9 12 12 0 8 -9 4 -16 -8z M2690 121 c0 -5 -11 -6 -25 -3
-16 3 -25 0 -25 -8 0 -9 13 -11 46 -6 26 3 60 6 75 6 16 0 29 4 29 9 0 5 -22
9 -50 9 -27 1 -50 -3 -50 -7z M2610 115 c0 -3 2 -5 5 -5 3 0 5 2 5 5 0 3 -2 5
-5 5 -3 0 -5 -2 -5 -5z M2800 105 c0 -10 -10 -15 -26 -15 -26 0 -124 -64 -124
-81 0 -16 17 -10 47 15 16 14 41 28 56 31 15 4 30 11 33 16 3 5 17 10 32 10
17 1 21 3 10 6 -10 2 -18 9 -18 14 0 6 5 7 12 3 7 -4 8 -3 4 4 -10 17 -26 15
-26 -3z M2865 111 c-3 -5 -1 -12 5 -16 5 -3 10 1 10 9 0 18 -6 21 -15 7z
M3020 110 c0 -5 5 -10 11 -10 5 0 7 5 4 10 -3 6 -8 10 -11 10 -2 0 -4 -4 -4
-10z M2560 102 c0 -5 7 -9 15 -9 8 0 12 4 9 9 -7 10 -24 10 -24 0z M2960 95
c0 -3 2 -5 5 -5 3 0 5 2 5 5 0 3 -2 5 -5 5 -3 0 -5 -2 -5 -5z M2033 45 c0 -27
2 -38 4 -22 2 15 2 37 0 50 -2 12 -4 0 -4 -28z M2054 59 c3 -17 6 -38 6 -45 0
-8 5 -14 10 -14 6 0 10 20 10 45 0 35 -4 45 -16 45 -13 0 -15 -7 -10 -31z
M2890 85 c0 -3 2 -5 5 -5 3 0 5 2 5 5 0 3 -2 5 -5 5 -3 0 -5 -2 -5 -5z M3140
85 c0 -3 2 -5 5 -5 3 0 5 2 5 5 0 3 -2 5 -5 5 -3 0 -5 -2 -5 -5z M3480 85 c0
-3 2 -5 5 -5 3 0 5 2 5 5 0 3 -2 5 -5 5 -3 0 -5 -2 -5 -5z M3500 80 c0 -5 5
-10 10 -10 6 0 10 5 10 10 0 6 -4 10 -10 10 -5 0 -10 -4 -10 -10z M2641 66
c-16 -9 -19 -14 -10 -18 8 -2 22 4 32 14 20 21 12 23 -22 4z M3203 73 c4 -3
10 -3 14 0 3 4 0 7 -7 7 -7 0 -10 -3 -7 -7z M2520 60 c0 -5 9 -10 20 -10 11 0
20 5 20 10 0 6 -9 10 -20 10 -11 0 -20 -4 -20 -10z M2830 59 c0 -5 -7 -9 -15
-9 -8 0 -15 -7 -15 -17 0 -15 1 -15 18 0 10 10 22 17 26 17 15 0 37 -30 30
-42 -5 -10 -4 -10 5 -2 10 9 10 17 2 32 -11 20 -51 37 -51 21z M2890 65 c0 -3
2 -5 5 -5 3 0 5 2 5 5 0 3 -2 5 -5 5 -3 0 -5 -2 -5 -5z M1990 50 c0 -7 3 -10
7 -7 3 4 3 10 0 14 -4 3 -7 0 -7 -7z M3440 55 c0 -3 2 -5 5 -5 3 0 5 2 5 5 0
3 -2 5 -5 5 -3 0 -5 -2 -5 -5z M3850 50 c0 -5 7 -7 15 -4 8 4 15 8 15 10 0 2
-7 4 -15 4 -8 0 -15 -4 -15 -10z M2775 40 c-3 -5 -1 -10 4 -10 6 0 11 5 11 10
0 6 -2 10 -4 10 -3 0 -8 -4 -11 -10z M1635 31 c-3 -5 -1 -12 5 -16 5 -3 10 1
10 9 0 18 -6 21 -15 7z M2580 35 c0 -18 19 -40 26 -32 4 4 0 15 -9 24 -9 10
-17 13 -17 8z M2740 25 c0 -3 2 -5 5 -5 3 0 5 2 5 5 0 3 -2 5 -5 5 -3 0 -5 -2
-5 -5z M1980 15 c0 -3 2 -5 5 -5 3 0 5 2 5 5 0 3 -2 5 -5 5 -3 0 -5 -2 -5 -5z
M2000 15 c0 -3 2 -5 5 -5 3 0 5 2 5 5 0 3 -2 5 -5 5 -3 0 -5 -2 -5 -5z M2540
16 c0 -2 7 -7 16 -10 8 -3 12 -2 9 4 -6 10 -25 14 -25 6z M2900 15 c0 -3 2 -5
5 -5 3 0 5 2 5 5 0 3 -2 5 -5 5 -3 0 -5 -2 -5 -5z M2800 5 c0 -3 2 -5 5 -5 3
0 5 2 5 5 0 3 -2 5 -5 5 -3 0 -5 -2 -5 -5z M2843 3 c4 -3 10 -3 14 0 3 4 0 7
-7 7 -7 0 -10 -3 -7 -7z M3440 5 c0 -3 2 -5 5 -5 3 0 5 2 5 5 0 3 -2 5 -5 5
-3 0 -5 -2 -5 -5z"/>
</g>
</svg>
